<svg id="_x33_0" enable-background="new 0 0 62.044 62" height="512" viewBox="0 0 62.044 62" width="512" xmlns="http://www.w3.org/2000/svg"><g><g><g><path d="m1.32 10.65c-.21-.43-.32-.9-.32-1.38 0-.81.32-1.59.9-2.17l.1-.1c0-1.1.45-2.1 1.17-2.83.73-.72 1.73-1.17 2.83-1.17l.2-.39c.49-.99 1.5-1.61 2.6-1.61.77 0 1.51.31 2.05.85l.15.15.15-.15c.54-.54 1.28-.85 2.05-.85 1.1 0 2.11.62 2.6 1.61l.2.39c1.1 0 2.1.45 2.83 1.17.72.73 1.17 1.73 1.17 2.83l.1.1c.06.06.12.13.19.2.46.55.71 1.25.71 1.97 0 .48-.11.95-.32 1.38l-.41.81c-.35-.29-.79-.46-1.27-.46h-1.17-.01c-.4-1.17-1.51-2-2.82-2h-1.53c-1.6 0-3.12-.53-4.35-1.47l-.01.01-2.93.84c-1.21.35-2.06 1.39-2.17 2.62h-1.01c-.48 0-.92.17-1.27.46z" fill="#656d78"/></g><g><path d="m4 51.26v2.74c0 1.94.78 3.68 2.05 4.95.46.46.99.86 1.56 1.18l-2.08.69c-.35.12-.72.18-1.09.18-.95 0-1.81-.38-2.43-1.01-.63-.62-1.01-1.48-1.01-2.43v-6.56c0-4.21 2.61-7.82 6.3-9.29 1.14-.46 2.39-.71 3.7-.71 2.76 0 5.26 1.12 7.07 2.93s2.93 4.31 2.93 7.07v4.01 2.55c0 1.9-1.54 3.44-3.44 3.44-.37 0-.74-.06-1.09-.18l-2.08-.69c2.15-1.2 3.61-3.49 3.61-6.13v-2c0-1.66-1.34-3-3-3h-1.53c-1.6 0-3.12-.53-4.35-1.47l-.01.01-2.93.84c-1.29.37-2.18 1.54-2.18 2.88z" fill="#656d78"/></g><g><path d="m57.82 51c-.4-1.17-1.51-2-2.82-2h-1.53c-1.6 0-3.12-.53-4.35-1.47l-.01.01-2.93.84c-1.21.35-2.06 1.39-2.17 2.62h-1.01c-.36 0-.71.1-1 .27v-4.04c0-3.44 2.79-6.23 6.23-6.23.51 0 1.02.06 1.51.19l1.8.45c.97.24 1.96.36 2.96.36h.07c.98-.01 1.94-.13 2.89-.36l2.54-.64.58 2.33c.28 1.11.42 2.25.42 3.4 0 1.5-.24 3-.72 4.43l-.08.24c-.34-.25-.75-.4-1.2-.4h-1.17z" fill="#b27946"/></g><g><path d="m45 28c0 .55-.45 1-1 1h-3-20-3c-.55 0-1-.45-1-1v-2c0-.55.45-1 1-1h10 6 10c.55 0 1 .45 1 1z" fill="#969faa"/></g><g><path d="m33.49 22.94.51 2.06h-6l.51-2.06c.29-1.14 1.31-1.94 2.49-1.94s2.2.8 2.49 1.94z" fill="#aab2bd"/></g><g><path d="m41 29v7c0 .55-.45 1-1 1h-18c-.55 0-1-.45-1-1v-7z" fill="#aab2bd"/></g><g><path d="m48.03 7.54-2.94.84c-1.29.37-2.17 1.54-2.17 2.88v2.74c0 1.94.78 3.68 2.05 4.95.48.48 1.02.88 1.61 1.21l-.43.22c-.81.41-1.7.62-2.61.62-1.67 0-3.26-.72-4.36-1.97l-.18-.2c.61-1.87.92-3.83.92-5.81v-1.98c0-1.47.32-2.87.89-4.13.5-1.11 1.2-2.12 2.05-2.97 1.82-1.82 4.32-2.94 7.1-2.94 5.54 0 10.04 4.5 10.04 10.04v1.98c0 1.98.31 3.94.92 5.81l-.18.2c-1.11 1.25-2.7 1.97-4.36 1.97-.49 0-.98-.06-1.45-.19-.4-.1-.79-.24-1.16-.43l-.49-.24c2.17-1.19 3.64-3.49 3.64-6.14v-2c0-1.66-1.35-3-3-3h-1.53c-1.6 0-3.13-.53-4.36-1.46z" fill="#fcd770"/></g><g><circle cx="45" cy="39" fill="#fcd770" r="2"/></g><g><path d="m58 52c0-.35-.06-.69-.18-1h.01 1.17c.45 0 .86.15 1.2.4.48.37.8.95.8 1.6 0 .55-.22 1.05-.59 1.41-.36.37-.86.59-1.41.59h-1.07-.01c.06-.33.08-.66.08-1z" fill="#f0d0b4"/></g><g><path d="m44 54c0 .34.02.67.08 1h-.01-1.07c-.43 0-.82-.13-1.15-.36-.09-.07-.18-.15-.26-.23-.37-.36-.59-.86-.59-1.41 0-.74.4-1.38 1-1.73.29-.17.64-.27 1-.27h1.01c-.01.09-.01.17-.01.26z" fill="#f0d0b4"/></g><g><path d="m18 52v2c0 2.64-1.46 4.93-3.61 6.13h-.01c-1 .56-2.15.87-3.38.87s-2.38-.31-3.38-.87h-.01c-.57-.32-1.1-.72-1.56-1.18-1.27-1.27-2.05-3.01-2.05-4.95v-2.74c0-1.34.89-2.51 2.18-2.88l2.93-.84.01-.01c1.23.94 2.75 1.47 4.35 1.47h1.53c1.66 0 3 1.34 3 3z" fill="#f0d0b4"/></g><g><path d="m58 52v2c0 .34-.02.67-.08 1-.48 3.4-3.39 6-6.92 6-1.94 0-3.68-.78-4.95-2.05-1.05-1.05-1.76-2.41-1.97-3.95-.06-.33-.08-.66-.08-1v-2.74c0-.09 0-.17.01-.26.11-1.23.96-2.27 2.17-2.62l2.93-.84.01-.01c1.23.94 2.75 1.47 4.35 1.47h1.53c1.31 0 2.42.83 2.82 2 .12.31.18.65.18 1z" fill="#f0d0b4"/></g><g><path d="m56.92 12v2c0 2.65-1.47 4.95-3.64 6.14-1 .55-2.14.86-3.36.86-1.21 0-2.34-.3-3.33-.84h-.01c-.59-.33-1.13-.73-1.61-1.21-1.27-1.27-2.05-3.01-2.05-4.95v-2.74c0-1.34.88-2.51 2.17-2.88l2.94-.84c1.23.93 2.76 1.46 4.36 1.46h1.53c1.65 0 3 1.34 3 3z" fill="#f0d0b4"/></g><g><path d="m17.83 11h1.17c.48 0 .92.17 1.27.46.45.37.73.92.73 1.54 0 .55-.22 1.05-.59 1.41-.36.37-.86.59-1.41.59h-1.07-.01c.06-.33.08-.66.08-1v-2c0-.35-.06-.69-.18-1z" fill="#f0d0b4"/></g><g><path d="m18 14c0 .34-.02.67-.08 1-.48 3.4-3.39 6-6.92 6-1.31 0-2.53-.36-3.57-.98-.51-.3-.97-.66-1.38-1.07-1.05-1.05-1.76-2.41-1.97-3.95-.06-.33-.08-.66-.08-1v-2.74c0-.09 0-.17.01-.26.11-1.23.96-2.27 2.17-2.62l2.93-.84.01-.01c1.23.94 2.75 1.47 4.35 1.47h1.53c1.31 0 2.42.83 2.82 2 .12.31.18.65.18 1z" fill="#f0d0b4"/></g><g><path d="m4.07 15h-1.07c-.55 0-1.05-.22-1.41-.59-.37-.36-.59-.86-.59-1.41 0-.62.28-1.17.73-1.54.35-.29.79-.46 1.27-.46h1.01c-.01.09-.01.17-.01.26v2.74c0 .34.02.67.08 1z" fill="#f0d0b4"/></g></g><g><path d="m50.764 56h-1.764v2h1.764c1.76 0 3.343-.978 4.131-2.553l-1.789-.895c-.447.893-1.344 1.448-2.342 1.448z"/><path d="m61.551 43.084-.823-3.297-3.515.879c-.354.089-.715.146-1.077.199 1.235-3.136 1.864-6.446 1.864-9.865 0-3.102-.523-6.122-1.544-9.004 1.924-.023 3.755-.855 5.033-2.298l.556-.628-.176-.543c-.577-1.782-.869-3.634-.869-5.505v-1.98c0-6.089-4.953-11.042-11.042-11.042-4.135 0-7.741 2.288-9.632 5.661-2.981-1.098-6.113-1.661-9.326-1.661-3.511 0-6.91.667-10.123 1.969-.435-2.059-2.127-3.659-4.241-3.929-.686-1.262-1.989-2.04-3.432-2.04-.798 0-1.559.237-2.204.679-.644-.441-1.405-.679-2.204-.679-1.442 0-2.745.778-3.432 2.04-2.321.296-4.15 2.189-4.347 4.54-.649.739-1.017 1.707-1.017 2.694 0 .628.148 1.258.43 1.823l.102.204c-.334.484-.532 1.068-.532 1.699 0 1.654 1.346 3 3 3h.263c.458 1.769 1.503 3.299 2.92 4.372-1.443 3.36-2.183 6.929-2.183 10.628 0 3.543.68 6.972 2.006 10.211-3.559 1.824-6.006 5.522-6.006 9.789v6.559c0 2.449 1.992 4.441 4.441 4.441.479 0 .951-.077 1.405-.228l1.7-.567c1.048.504 2.216.795 3.454.795s2.406-.291 3.453-.795l1.7.567c.454.151.927.228 1.406.228 2.449 0 4.441-1.992 4.441-4.441v-1.099c2.882 1.02 5.901 1.54 9 1.54 3.759 0 7.387-.764 10.798-2.255.369.162.774.255 1.202.255h.263c.892 3.445 4.017 6 7.737 6s6.845-2.555 7.737-6h.263c1.654 0 3-1.346 3-3 0-.71-.258-1.355-.672-1.869.439-1.43.672-2.909.672-4.405 0-1.227-.151-2.453-.449-3.642zm-17.634-29.084v-2.737c0-.888.597-1.679 1.45-1.923l2.467-.705c1.32.876 2.893 1.365 4.555 1.365h1.528c1.103 0 2 .897 2 2v2c0 3.309-2.691 6-6 6s-6-2.691-6-6zm6.041-12c4.985 0 9.042 4.056 9.042 9.042v1.98c0 1.885.267 3.752.793 5.559-1.145 1.149-2.873 1.611-4.452 1.283 1.58-1.462 2.576-3.546 2.576-5.864v-2c0-2.206-1.794-4-4-4h-1.528c-2.377 0-4.515-1.321-5.577-3.447l-1.789.895c.293.585.646 1.124 1.053 1.61l-1.257.359c-1.708.487-2.901 2.069-2.901 3.846v2.737c0 2.325 1.003 4.416 2.593 5.879-1.559.301-3.257-.164-4.386-1.298.526-1.807.793-3.674.793-5.559v-1.98c-.001-4.986 4.055-9.042 9.04-9.042zm-30.958 10c.552 0 1 .449 1 1s-.448 1-1 1zm-17 1c0-.551.448-1 1-1v2c-.552 0-1-.449-1-1zm1.208-3h-.208c-.282 0-.55.052-.809.125-.12-.268-.191-.559-.191-.851 0-.546.222-1.082.605-1.466l.395-.392v-.416c0-1.654 1.346-3 3-3h.619l.472-.946c.325-.65.978-1.054 1.705-1.054.51 0 .988.198 1.348.557l.856.86.855-.858c.361-.361.839-.559 1.349-.559.727 0 1.38.404 1.705 1.053l.472.947h.619c1.654 0 3 1.346 3 3v.416l.393.391c.385.385.607.921.607 1.467 0 .293-.071.584-.191.851-.259-.073-.527-.125-.809-.125h-.556c-.694-1.19-1.97-2-3.444-2h-1.528c-2.377 0-4.515-1.321-5.577-3.447l-1.79.894c.293.585.646 1.124 1.053 1.61l-1.257.36c-1.287.367-2.281 1.357-2.693 2.583zm1.792 4v-2.737c0-.888.597-1.679 1.45-1.923l2.467-.705c1.32.876 2.894 1.365 4.555 1.365h1.528c1.103 0 2 .897 2 2v2c0 3.309-2.691 6-6 6s-6-2.691-6-6zm0 40v-2.737c0-.888.597-1.679 1.45-1.923l2.467-.705c1.32.876 2.894 1.365 4.555 1.365h1.528c1.103 0 2 .897 2 2v2c0 3.309-2.691 6-6 6s-6-2.691-6-6zm15 3.559c0 1.346-1.095 2.441-2.441 2.441-.263 0-.522-.042-.772-.125l-.274-.091c1.528-1.459 2.487-3.51 2.487-5.784v-2c0-2.206-1.794-4-4-4h-1.528c-2.377 0-4.515-1.321-5.577-3.447l-1.789.895c.293.585.646 1.124 1.053 1.61l-1.257.359c-1.709.487-2.902 2.069-2.902 3.846v2.737c0 2.274.959 4.325 2.488 5.783l-.274.091c-.25.084-.51.126-.773.126-1.346 0-2.441-1.095-2.441-2.441v-6.559c0-4.962 4.037-9 9-9s9 4.038 9 9zm2-3.236v-3.323c0-6.065-4.935-11-11-11-1.091 0-2.144.165-3.14.462-1.229-3-1.86-6.177-1.86-9.462 0-3.344.651-6.573 1.923-9.617.948.396 1.987.617 3.077.617 3.719 0 6.845-2.555 7.737-6h.263c1.654 0 3-1.346 3-3 0-.631-.198-1.215-.532-1.699l.103-.206c.281-.563.429-1.193.429-1.821 0-.511-.103-1.015-.288-1.487 2.95-1.183 6.067-1.787 9.288-1.787 2.932 0 5.79.504 8.513 1.491-.38 1.116-.596 2.307-.596 3.55v1.98c0 1.871-.292 3.723-.868 5.504l-.176.543.556.628c1.295 1.465 3.158 2.304 5.112 2.304 1.055 0 2.111-.25 3.052-.72l.013-.006c1.01.462 2.129.726 3.311.726 1.198 0 2.332-.272 3.353-.747l.052.026c.276.138.562.25.854.35 1.206 2.976 1.824 6.125 1.824 9.371 0 3.471-.703 6.817-2.074 9.964-.72-.037-1.438-.122-2.139-.298l-1.801-.45c-.572-.143-1.163-.216-1.754-.216-.143 0-.282.013-.423.021.117-.32.191-.661.191-1.021 0-1.302-.839-2.402-2-2.816v-8.184-2c0-1.103-.897-2-2-2h-9.22l-.325-1.302c-.396-1.589-1.817-2.698-3.455-2.698s-3.059 1.109-3.455 2.698l-.325 1.302h-9.22c-1.103 0-2 .897-2 2v2c0 1.103.897 2 2 2h2v6c0 1.103.897 2 2 2h18c1.103 0 2-.897 2-2v-6h2v6.184c-1.161.414-2 1.514-2 2.816 0 1.159.668 2.156 1.633 2.655-1.607 1.328-2.633 3.335-2.633 5.578v3.547c-.609.549-1 1.337-1 2.22 0 .437.099.849.267 1.224-2.942 1.178-6.053 1.776-9.267 1.776-3.11 0-6.133-.569-9-1.677zm0-24.323h18v6h-18zm-4-2v-2h26l.001 2h-.001zm11.28-4 .204-.817c.175-.697.798-1.183 1.516-1.183s1.341.486 1.516 1.183l.204.817zm15.72 14c.552 0 1 .449 1 1s-.448 1-1 1-1-.449-1-1 .448-1 1-1zm-3 15c0-.551.448-1 1-1v2c-.552 0-1-.449-1-1zm15 1c0 3.309-2.691 6-6 6s-6-2.691-6-6v-2.737c0-.888.597-1.679 1.45-1.923l2.467-.705c1.32.876 2.894 1.365 4.555 1.365h1.528c1.103 0 2 .897 2 2zm-2-6h-1.528c-2.377 0-4.515-1.321-5.577-3.447l-1.789.895c.293.585.646 1.124 1.053 1.61l-1.257.359c-1.288.367-2.281 1.357-2.693 2.583h-.209v-2.767c0-2.885 2.348-5.233 5.232-5.233.428 0 .854.053 1.27.156l1.801.45c2.088.522 4.307.522 6.395 0l1.575-.394.339 1.356c.257 1.032.388 2.094.388 3.158 0 1.128-.153 2.244-.441 3.331-.182-.035-.368-.057-.559-.057h-.556c-.694-1.19-1.97-2-3.444-2zm4 6v-2c.552 0 1 .449 1 1s-.448 1-1 1z"/><path d="m14.895 15.447-1.789-.895c-.447.893-1.344 1.448-2.342 1.448h-1.764v2h1.764c1.759 0 3.342-.978 4.131-2.553z"/><path d="m10.764 56h-1.764v2h1.764c1.76 0 3.343-.978 4.131-2.553l-1.789-.895c-.447.893-1.344 1.448-2.342 1.448z"/><path d="m53.812 15.447-1.789-.895c-.447.893-1.344 1.448-2.342 1.448h-1.764v2h1.764c1.759 0 3.342-.978 4.131-2.553z"/></g></g></svg>