<svg id="Layer_1" enable-background="new 0 0 128 128" height="512" viewBox="0 0 128 128" width="512" xmlns="http://www.w3.org/2000/svg"><path d="m121.929 91.94h-9.096v-17.158c0-4.82-1.882-9.198-4.931-12.476-.053-.073-.108-.139-.176-.193-2.542-2.657-5.863-4.561-9.603-5.318 3.291-1.929 5.75-5.113 6.725-8.895.089.01.178.024.268.024 1.688 0 3.012-1.687 3.012-3.84 0-1.271-.468-2.368-1.193-3.063v-6.687c0-7.52-6.096-13.615-13.615-13.615h-4.996c-.307 0-.608.026-.911.046 0-.023.005-.045.004-.068-.016-1.151-.757-2.075-1.655-2.063-.676.009-1.248.546-1.483 1.301-.657-.446-1.441-.51-1.976-.094-.643.5-.698 1.517-.178 2.381-4.4 2.256-7.417 6.828-7.417 12.112v6.687c-.724.695-1.193 1.792-1.193 3.063 0 2.153 1.323 3.84 3.012 3.84.09 0 .179-.014.268-.024.975 3.782 3.434 6.966 6.725 8.895-3.741.757-7.063 2.662-9.606 5.321-.063.051-.113.112-.162.179-3.056 3.279-4.942 7.662-4.942 12.487v17.158h-4.606v-9.532-8.226c0-5.003-1.955-9.546-5.122-12.947-.052-.07-.104-.134-.17-.187-2.66-2.782-6.144-4.764-10.065-5.535 3.467-1.999 6.056-5.337 7.07-9.307.102.013.205.028.308.028 1.733 0 3.091-1.736 3.091-3.952 0-1.293-.471-2.41-1.2-3.127v-4.409c0-5.49-2.642-10.363-6.724-13.416.515-.603 2.031-2.504 1.403-3.327-.751-.984-3.223.978-3.223.978s-.725-2.61-1.753-2.376c-.718.163-.886 1.525-.923 2.336-1.73-.604-3.587-.937-5.523-.937-5.254 0-9.94 2.421-13.01 6.207-.567.121-1.08.184-1.507.165-2.603-.117-3.626-3.056-5.048-2.176-1.206.747-1.096 7.531 2.948 10.516-.081.666-.127 1.343-.127 2.031v4.409c-.73.716-1.2 1.834-1.2 3.127 0 2.216 1.357 3.952 3.091 3.952.103 0 .206-.015.308-.028 1.014 3.97 3.603 7.308 7.07 9.307-3.919.77-7.402 2.751-10.062 5.53-.073.057-.131.127-.186.205-2.36 2.539-4.046 5.709-4.744 9.239l-2.521-1.408c-.301-.168-.668-.169-.969-.003-.302.166-.497.476-.517.82l-.311 5.484c-.002.034.007.067.008.102.002.034.003.067.008.101.017.117.047.231.104.336l3.729 6.789c-1.048 1.195-1.689 2.756-1.689 4.467 0 1.764.682 3.368 1.789 4.577v.19h-8.469c-2.436 0-4.417 1.981-4.417 4.417v3.33c0 2.435 1.981 4.417 4.417 4.417h4.266v10.307c0 .552.447 1 1 1h5.79c.553 0 1-.448 1-1v-10.307h87.746v10.307c0 .552.447 1 1 1h5.79c.553 0 1-.448 1-1v-10.307h4.266c2.436 0 4.417-1.981 4.417-4.417v-3.33c.003-2.439-1.979-4.42-4.414-4.42z" fill="#e6e7e8"/><path d="m52.226 35.332c-.293 0-.572.087-.825.241v2.922c0 .8-.071 1.583-.199 2.347.304.243.65.393 1.024.393 1.155 0 2.09-1.321 2.09-2.951.001-1.631-.935-2.952-2.09-2.952z" fill="#fff"/><path d="m23.345 38.494v-2.922c-.253-.154-.532-.241-.825-.241-1.155 0-2.09 1.321-2.09 2.951s.936 2.951 2.09 2.951c.374 0 .72-.15 1.024-.393-.129-.762-.199-1.545-.199-2.346z" fill="#fff"/><path d="m42.833 52.233c-.329 2.725-2.646 4.839-5.461 4.839s-5.131-2.113-5.461-4.839c-9.18.839-16.372 8.55-16.372 17.949v18.758h43.665v-18.758c.001-9.399-7.191-17.109-16.371-17.949z" fill="#6dc9f7"/><path d="m37.373 52.523c-1.954 0-3.815-.401-5.505-1.123v.167c0 3.04 2.465 5.505 5.505 5.505 3.04 0 5.505-2.465 5.505-5.505v-.167c-1.691.722-3.551 1.123-5.505 1.123z" fill="#fff"/><path d="m48.888 28.107c-.777-1.321-1.042-2.771-1.042-2.771s-13.31 7.2-24.501 4.568v8.591c0 7.747 6.281 14.028 14.028 14.028 7.747 0 14.028-6.281 14.028-14.028l-.029-7.657c0-.001-1.707-1.41-2.484-2.731z" fill="#fff"/><path d="m48.674 78.408h10.532v10.532h-10.532z" fill="#fff"/><path d="m19.54 77.384h1.963l-4.809-8.753-4.796-2.679-.311 5.484 4.086 7.437c1.026-.923 2.379-1.489 3.867-1.489z" fill="#fa759e"/><path d="m19.54 88.963h2.761c1.672 0 3.028-1.356 3.028-3.028v-5.523c0-1.672-1.356-3.028-3.028-3.028h-2.761c-3.197 0-5.789 2.592-5.789 5.789 0 3.198 2.592 5.79 5.789 5.79z" fill="#fff"/><path d="m72.528 37.244c.282 0 .55.084.794.232v2.812c0 .77.068 1.524.192 2.258-.292.234-.626.379-.986.379-1.111 0-2.012-1.272-2.012-2.84s.901-2.841 2.012-2.841z" fill="#fff"/><path d="m100.322 40.287v-2.812c.244-.148.512-.232.794-.232 1.111 0 2.012 1.272 2.012 2.84s-.901 2.84-2.012 2.84c-.36 0-.693-.145-.986-.379.124-.733.192-1.487.192-2.257z" fill="#fff"/><path d="m92.055 53.508c-.319 2.62-2.526 4.657-5.233 4.657-2.706 0-4.914-2.037-5.233-4.657-8.844.797-15.777 8.222-15.777 17.274v18.158h42.021v-18.158c0-9.052-6.933-16.477-15.778-17.274z" fill="#fa759e"/><path d="m86.822 53.787c1.881 0 3.671-.386 5.298-1.08v.161c0 2.926-2.372 5.297-5.298 5.297s-5.298-2.372-5.298-5.297v-.161c1.627.695 3.418 1.08 5.298 1.08z" fill="#fff"/><path d="m86.822 53.787c7.456 0 13.5-6.044 13.5-13.5v-8.47c0-7.456-6.044-13.5-13.5-13.5-7.456 0-13.5 6.044-13.5 13.5v8.47c0 7.456 6.045 13.5 13.5 13.5z" fill="#fff"/><path d="m71.651 65.926v11.436h2.712c1.672 0 3.028 1.356 3.028 3.028v5.523c0 1.672-1.356 3.028-3.028 3.028h24.919c-1.672 0-3.028-1.356-3.028-3.028v-5.523c0-1.672 1.356-3.028 3.028-3.028h2.761c.101 0 .199.01.299.015v-11.451z" fill="#0089ef"/><path d="m90.501 70.038h7.94v4.114h-7.94z" fill="#d4fbff"/><path d="m102.043 88.941h-2.761c-1.672 0-3.028-1.356-3.028-3.028v-5.523c0-1.672 1.356-3.028 3.028-3.028h2.761c3.197 0 5.789 2.592 5.789 5.789.001 3.198-2.591 5.79-5.789 5.79z" fill="#fff"/><path d="m71.601 88.941h2.761c1.672 0 3.028-1.356 3.028-3.028v-5.523c0-1.672-1.356-3.028-3.028-3.028h-2.761c-3.197 0-5.789 2.592-5.789 5.789 0 3.198 2.592 5.79 5.789 5.79z" fill="#fff"/><path d="m11.337 99.103h5.791v11.307h-5.791z" fill="#fa759e"/><path d="m106.873 99.103h5.791v11.307h-5.791z" fill="#fa759e"/><path d="m117.929 99.103h-111.858c-1.887 0-3.417-1.53-3.417-3.417v-3.33c0-1.887 1.53-3.417 3.417-3.417h111.858c1.887 0 3.417 1.53 3.417 3.417v3.33c0 1.887-1.53 3.417-3.417 3.417z" fill="#fa759e"/><path d="m117.929 88.94h-111.858c-1.887 0-3.417 1.53-3.417 3.417v3c0-1.887 1.53-3.417 3.417-3.417h111.858c1.887 0 3.417 1.53 3.417 3.417v-3c0-1.888-1.53-3.417-3.417-3.417z" fill="#fff"/><g fill="#3a2c60"><path d="m31.246 35.128c-.775 0-1.403.628-1.403 1.403s.628 1.403 1.403 1.403 1.403-.628 1.403-1.403-.628-1.403-1.403-1.403z"/><path d="m43.624 35.128c-.775 0-1.403.628-1.403 1.403s.628 1.403 1.403 1.403 1.403-.628 1.403-1.403c-.001-.775-.629-1.403-1.403-1.403z"/><path d="m37.434 43.775c1.432 0 2.596-1.164 2.596-2.595v-.936c0-.552-.447-1-1-1s-1 .448-1 1v.936c0 .328-.268.595-.596.595s-.595-.267-.595-.595v-.936c0-.552-.447-1-1-1s-1 .448-1 1v.936c.001 1.431 1.165 2.595 2.595 2.595z"/><path d="m42.491 34.188 2.747.479c.059.01.116.015.173.015.478 0 .899-.342.984-.829.095-.544-.27-1.062-.813-1.157l-2.747-.479c-.554-.092-1.062.27-1.157.814s.269 1.062.813 1.157z"/><path d="m32.035 32.217-2.747.479c-.544.095-.908.613-.813 1.157.085.486.507.829.984.829.057 0 .114-.005.173-.015l2.747-.479c.544-.095.908-.613.813-1.157s-.605-.906-1.157-.814z"/><path d="m41.34 45.609c.331-.437.245-1.055-.188-1.391-.431-.334-1.059-.255-1.399.175-.034.043-.846 1.048-2.317 1.048-1.493 0-2.26-.973-2.304-1.029-.323-.44-.943-.539-1.39-.218-.448.323-.549.948-.226 1.396.054.076 1.364 1.851 3.919 1.851 2.489 0 3.848-1.757 3.905-1.832z"/><path d="m92.718 37.048c-.745 0-1.35.604-1.35 1.35s.604 1.35 1.35 1.35 1.35-.604 1.35-1.35c.001-.746-.604-1.35-1.35-1.35z"/><path d="m80.807 37.048c-.745 0-1.35.604-1.35 1.35s.604 1.35 1.35 1.35 1.35-.604 1.35-1.35-.605-1.35-1.35-1.35z"/><path d="m86.763 45.407c1.397 0 2.535-1.137 2.535-2.535v-.9c0-.552-.447-1-1-1s-1 .448-1 1v.9c0 .295-.24.535-.535.535s-.535-.24-.535-.535v-.9c0-.552-.447-1-1-1s-1 .448-1 1v.9c-.001 1.398 1.137 2.535 2.535 2.535z"/><path d="m81.559 33.714-2.644.461c-.544.095-.908.613-.813 1.157.085.486.507.828.984.828.057 0 .114-.005.173-.015l2.644-.461c.544-.095.908-.613.813-1.157-.094-.543-.602-.905-1.157-.813z"/><path d="m91.622 35.685 2.644.461c.059.01.116.015.173.015.478 0 .899-.342.984-.828.095-.544-.27-1.062-.813-1.157l-2.644-.461c-.554-.092-1.062.27-1.157.813s.269 1.061.813 1.157z"/><path d="m90.564 47.138c.323-.448.223-1.073-.226-1.396-.449-.324-1.073-.222-1.396.226-.008.009-.738.967-2.181.967-1.396 0-2.168-.954-2.194-.986-.333-.439-.96-.528-1.4-.193-.44.333-.527.96-.193 1.401.055.072 1.375 1.778 3.788 1.778 2.478 0 3.75-1.724 3.802-1.797z"/><path d="m65.437 98.103h-7.251c-.553 0-1 .448-1 1s.447 1 1 1h7.251c.553 0 1-.448 1-1s-.447-1-1-1z"/><path d="m117.93 87.939h-9.097v-17.157c0-8.874-6.333-16.291-14.716-17.984 3.297-1.93 5.76-5.12 6.734-8.91.089.01.176.036.265.036 1.688 0 3.012-1.687 3.012-3.84 0-1.271-.468-2.368-1.193-3.063v-6.687c0-7.52-6.096-13.615-13.615-13.615h-4.996c-.307 0-.608.026-.911.046 0-.023.005-.045.004-.068-.016-1.151-.757-2.075-1.655-2.063-.676.009-1.248.546-1.483 1.301-.656-.446-1.441-.51-1.976-.094-.643.5-.698 1.517-.178 2.381-4.4 2.256-7.417 6.828-7.417 12.112v6.687c-.725.695-1.193 1.792-1.193 3.063 0 2.153 1.323 3.84 3.012 3.84.089 0 .176-.026.265-.036.974 3.789 3.437 6.979 6.734 8.91-8.383 1.693-14.716 9.11-14.716 17.984v17.158h-4.606v-9.532-8.226c0-5.021-1.963-9.586-5.151-12.99-.045-.055-.091-.104-.146-.148-2.659-2.778-6.14-4.762-10.059-5.532 3.471-2.001 6.062-5.344 7.073-9.32.102.013.202.042.305.042 1.732 0 3.09-1.735 3.09-3.951 0-1.293-.471-2.41-1.2-3.127v-4.409c0-5.49-2.642-10.363-6.724-13.416.515-.603 2.031-2.504 1.403-3.327-.751-.984-3.222.978-3.222.978s-.725-2.61-1.754-2.376c-.717.163-.886 1.525-.923 2.336-1.73-.604-3.587-.937-5.523-.937-5.254 0-9.94 2.421-13.01 6.207-.567.121-1.079.184-1.507.165-2.603-.117-3.626-3.057-5.048-2.176-1.206.747-1.096 7.531 2.948 10.516-.081.666-.127 1.343-.127 2.031v4.409c-.729.717-1.2 1.834-1.2 3.127 0 2.216 1.357 3.951 3.09 3.951.103 0 .203-.028.305-.042 1.011 3.975 3.602 7.318 7.072 9.319-3.902.768-7.366 2.741-10.017 5.504-.099.07-.18.157-.249.262-2.343 2.536-4.001 5.706-4.695 9.224l-2.549-1.424c-.301-.168-.668-.169-.969-.003-.302.166-.497.476-.517.82l-.311 5.484c-.002.034.007.067.008.101s.003.067.008.101c.017.117.048.231.105.336l3.729 6.788c-1.049 1.195-1.69 2.757-1.69 4.468 0 1.764.682 3.368 1.789 4.577v.189h-8.467c-2.436 0-4.417 1.981-4.417 4.417v3.33c0 2.436 1.981 4.417 4.417 4.417h4.266v10.307c0 .552.447 1 1 1h5.79c.553 0 1-.448 1-1v-10.307h35.812c.553 0 1-.448 1-1s-.447-1-1-1h-47.868c-1.333 0-2.417-1.084-2.417-2.417v-3.33c0-1.333 1.084-2.417 2.417-2.417h111.859c1.332 0 2.416 1.084 2.416 2.417v3.33c0 1.333-1.084 2.417-2.416 2.417h-48.244c-.553 0-1 .448-1 1s.447 1 1 1h36.187v10.307c0 .552.447 1 1 1h5.791c.553 0 1-.448 1-1v-10.307h4.266c2.435 0 4.416-1.981 4.416-4.417v-3.33c0-2.435-1.982-4.417-4.416-4.417zm-101.803 12.164v9.307h-3.79v-9.307zm50.684-16.952c0-2.641 2.148-4.79 4.79-4.79h2.762c1.118 0 2.027.91 2.027 2.028v5.523c0 1.113-.901 2.018-2.013 2.026h-2.791c-2.634-.007-4.775-2.15-4.775-4.787zm20.011-23.985c2.86 0 5.277-1.918 6.042-4.534 3.258.479 6.212 1.905 8.551 4.01-2.287 1.406-3.877 3.678-4.451 6.284h-20.281c-.574-2.606-2.164-4.879-4.453-6.285 2.339-2.105 5.293-3.53 8.55-4.009.766 2.616 3.182 4.534 6.042 4.534zm-4.066-4.97c1.292.378 2.654.591 4.066.591s2.774-.213 4.066-.591c-.563 1.717-2.163 2.969-4.066 2.969s-3.503-1.251-4.066-2.969zm19.301 33.743h-2.79c-1.111-.008-2.014-.913-2.014-2.026v-5.523c0-1.119.91-2.028 2.028-2.028h2.761c2.642 0 4.79 2.148 4.79 4.79.001 2.636-2.14 4.779-4.775 4.787zm-.715-11.577h-2.06c-2.222 0-4.028 1.807-4.028 4.028v5.523c0 .742.216 1.429.567 2.026h-7.824v-21.013h13.345zm-15.345-9.436v21.014h-8.173c.351-.598.567-1.284.567-2.026v-5.524c0-2.221-1.807-4.028-4.027-4.028h-1.712v-9.436zm20.836 11.418c-.936-.933-2.144-1.593-3.491-1.855v-10.563c0-.552-.447-1-1-1h-3.348c.572-2.04 1.956-3.773 3.857-4.797 2.473 2.863 3.982 6.579 3.982 10.652zm-5.604-36.434c.002-.014.001-.028.002-.042.057-.52.09-1.046.09-1.581v-1.997c.413.184.806.891.806 1.794.001.971-.452 1.715-.898 1.826zm-28.814 0c-.444-.111-.898-.855-.898-1.826 0-.903.393-1.61.806-1.794v1.998c0 .535.034 1.061.09 1.581.001.013 0 .027.002.041zm1.907-1.622v-8.018c.981-.23 2.518-.681 3.844-1.467 2.144-1.271 3.358-3.626 3.358-3.626s2.875 3.207 8.368 4.871c3.583 1.085 7.604 1.2 9.429 1.188v7.053c0 6.892-5.607 12.5-12.5 12.5s-12.499-5.609-12.499-12.501zm-3.527 19.84c1.902 1.024 3.287 2.757 3.859 4.798h-3.003c-.553 0-1 .448-1 1v10.51c-1.488.21-2.824.896-3.84 1.908v-7.563c0-4.073 1.51-7.79 3.984-10.653zm-12.59 17.28h-8.534v-11.09c0-3.066 1.701-5.827 4.371-7.25 2.585 2.984 4.163 6.863 4.163 11.114zm-41.906-7.42 3.513 6.396h-.272c-1.298 0-2.507.373-3.54 1.007l-3.055-5.56zm8.031 15.947c0 1.039-.788 1.888-1.796 2.005h-3.225c-2.531-.124-4.557-2.204-4.557-4.766 0-2.641 2.148-4.79 4.789-4.79h2.762c1.118 0 2.028.91 2.028 2.028v5.523zm-2.166-28.359c2.449-2.216 5.538-3.727 8.959-4.223.779 2.72 3.283 4.719 6.25 4.719 2.966 0 5.469-1.997 6.249-4.716 3.422.496 6.523 1.995 8.972 4.211-3.031 1.838-4.923 5.133-4.923 8.751v21.622h-20.599v-21.622c0-3.612-1.886-6.903-4.908-8.742zm10.926-4.684c1.359.405 2.794.63 4.283.63s2.924-.225 4.283-.63c-.57 1.835-2.263 3.179-4.283 3.179s-3.713-1.344-4.283-3.179zm19.209-12.663c.002-.021.001-.041.004-.062.061-.55.099-1.106.099-1.672v-2.132c.462.16.915.929.915 1.921-.001 1.064-.523 1.872-1.018 1.945zm-29.853 0c-.494-.074-1.017-.881-1.017-1.946 0-.992.453-1.761.915-1.921v2.132c0 .562.037 1.116.097 1.662.004.025.002.049.005.073zm1.899-1.734v-7.366c9.339 1.632 19.513-2.732 22.859-4.348.183.544.449 1.2.821 1.834.634 1.076 1.77 2.162 2.35 2.681l.026 7.199c0 7.184-5.845 13.028-13.028 13.028s-13.028-5.845-13.028-13.028zm-3.651 20.57c2.673 1.422 4.378 4.185 4.378 7.253v11.184c-.723-.688-1.695-1.118-2.771-1.118h-.207l-4.523-8.235c-.058-.105-.139-.192-.229-.27-.026-.022-.052-.041-.079-.06-.028-.02-.052-.045-.082-.062l-.417-.233c.506-3.203 1.898-6.111 3.93-8.459zm-6.063 9.558-1.942 1.067.118-2.086zm35.043 19.316v-8.532h8.531v8.532zm61.99 21.471h-3.791v-9.307h3.791z"/></g></svg>