<svg height="452pt" viewBox="0 0 452.548 452" width="452pt" xmlns="http://www.w3.org/2000/svg"><path d="m65.742188 22.628906s6.816406 25.316406 26.445312 26.492188c0 0-26.199219 9.050781-26.640625 28.402344 0 0-5.15625-27.144532-25.851563-28.117188 0 0 24.101563-3.652344 26.046876-26.777344zm0 0" fill="#d7e057"/><path d="m65.542969 80.523438c-1.425781 0-2.667969-1.011719-2.945313-2.433594-.046875-.25-4.988281-24.835938-23.042968-25.683594-1.542969-.074219-2.777344-1.304688-2.855469-2.84375-.082031-1.542969 1.019531-2.890625 2.542969-3.121094.882812-.140625 21.789062-3.636718 23.511718-24.066406.121094-1.449219 1.269532-2.601562 2.714844-2.734375 1.46875-.117187 2.789062.796875 3.167969 2.203125.0625.230469 6.519531 23.25 23.726562 24.28125 1.429688.085938 2.597657 1.167969 2.792969 2.582031.195312 1.417969-.636719 2.777344-1.988281 3.246094-.242188.085937-24.238281 8.621094-24.625 25.640625-.035157 1.53125-1.21875 2.789062-2.75 2.917969-.082031.007812-.164063.011719-.25.011719zm-15.480469-31.457032c7.753906 3.9375 12.460938 11.488282 15.171875 17.75 4.054687-8.042968 11.882813-13.574218 17.898437-16.855468-8.269531-3.683594-13.566406-11.300782-16.667968-17.445313-3.585938 8.722656-10.542969 13.738281-16.402344 16.550781zm0 0" fill="#3a312a"/><path d="m22.347656 56.589844s4.820313 17.90625 18.703125 18.738281c0 0-18.53125 6.398437-18.84375 20.089844 0 0-3.648437-19.203125-18.285156-19.890625 0 .003906 17.046875-2.582032 18.425781-18.9375zm0 0" fill="#d7e057"/><path d="m22.203125 98.417969c-1.425781 0-2.671875-1.011719-2.945313-2.441407-.03125-.160156-3.40625-16.882812-15.476562-17.449218-1.542969-.074219-2.773438-1.304688-2.855469-2.84375-.078125-1.542969 1.023438-2.890625 2.546875-3.121094.589844-.09375 14.726563-2.484375 15.882813-16.226562.121093-1.453126 1.269531-2.609376 2.71875-2.738282 1.449219-.121094 2.785156.800782 3.164062 2.203125.042969.15625 4.457031 15.839844 15.988281 16.53125 1.429688.085938 2.597657 1.167969 2.792969 2.585938.195313 1.417969-.640625 2.773437-1.992187 3.242187-.160156.054688-16.566406 5.90625-16.824219 17.324219-.039063 1.535156-1.222656 2.796875-2.753906 2.921875-.078125.007812-.164063.011719-.246094.011719zm-9.039063-23.054688c4.214844 2.664063 7.046876 6.789063 8.894532 10.558594 2.753906-4.464844 7.03125-7.742187 10.730468-9.945313-4.574218-2.539062-7.769531-6.699218-9.882812-10.445312-2.34375 4.570312-6.027344 7.75-9.742188 9.832031zm0 0" fill="#3a312a"/><path d="m22.347656 3.273438s4.820313 17.90625 18.703125 18.738281c0 0-18.53125 6.402343-18.84375 20.089843 0 0-3.648437-19.199218-18.285156-19.886718 0 0 17.046875-2.582032 18.425781-18.941406zm0 0" fill="#d7e057"/><path d="m22.203125 45.105469c-1.425781 0-2.671875-1.015625-2.945313-2.441407-.03125-.164062-3.40625-16.882812-15.476562-17.453124-1.542969-.074219-2.773438-1.300782-2.855469-2.839844-.078125-1.542969 1.023438-2.890625 2.546875-3.121094.589844-.09375 14.726563-2.488281 15.882813-16.230469.121093-1.449219 1.269531-2.605469 2.71875-2.734375 1.449219-.121094 2.785156.796875 3.164062 2.203125.042969.160157 4.457031 15.839844 15.988281 16.53125 1.429688.085938 2.597657 1.167969 2.792969 2.585938.195313 1.417969-.640625 2.773437-1.992187 3.242187-.160156.058594-16.566406 5.90625-16.824219 17.324219-.039063 1.535156-1.222656 2.792969-2.753906 2.921875-.078125.007812-.164063.011719-.246094.011719zm-9.039063-23.058594c4.214844 2.667969 7.046876 6.789063 8.894532 10.5625 2.753906-4.464844 7.03125-7.746094 10.730468-9.945313-4.574218-2.539062-7.769531-6.699218-9.882812-10.449218-2.34375 4.574218-6.027344 7.75-9.742188 9.832031zm0 0" fill="#3a312a"/><path d="m182.628906 449.199219v-36.726563c0-22.386718-18.144531-40.53125-40.527344-40.53125h-26.78125v-17.402344c-7.40625 5.136719-15.066406 8.164063-22.503906 8.164063-7.132812 0-14.660156-3.058594-22.035156-8.253906h-.457031v17.492187h-26.792969c-22.386719 0-40.53125 18.144532-40.53125 40.53125v36.726563zm0 0" fill="#fce8cb"/><path d="m182.628906 452.199219h-179.628906c-1.65625 0-3-1.339844-3-3v-36.726563c0-24.003906 19.527344-43.53125 43.53125-43.53125h23.792969v-14.492187c0-1.660157 1.34375-3 3-3h.453125c.621094 0 1.222656.191406 1.730468.546875 7.257813 5.113281 14.09375 7.707031 20.304688 7.707031 6.496094 0 13.496094-2.566406 20.800781-7.628906.917969-.636719 2.113281-.710938 3.101563-.191407.988281.519532 1.605468 1.539063 1.605468 2.65625v14.402344h23.78125c24 0 43.527344 19.527344 43.527344 43.53125v36.726563c0 1.660156-1.34375 3-3 3zm-176.628906-6h173.628906v-33.726563c0-20.695312-16.835937-37.53125-37.53125-37.53125h-26.777344c-1.65625 0-3-1.339844-3-3v-11.964844c-6.6875 3.804688-13.230468 5.726563-19.507812 5.726563-6.183594 0-12.71875-2.023437-19.488281-6.03125v12.269531c0 1.660156-1.34375 3-3 3h-26.792969c-20.695312 0-37.53125 16.835938-37.53125 37.53125zm0 0" fill="#3a312a"/><path d="m182.628906 449.203125v-36.742187c0-22.386719-18.144531-40.53125-40.527344-40.53125h-6.40625l.164063.121093-27.851563 36.941407-14.375-10.828126-14.371093 10.828126-27.855469-36.941407.164062-.121093h-8.039062c-22.386719 0-40.53125 18.144531-40.53125 40.53125v36.742187zm0 0" fill="#8ac6dd"/><path d="m182.628906 452.203125h-179.625c-1.65625 0-2.99999975-1.34375-2.99999975-3v-36.746094c0-24 19.52734375-43.527343 43.52734375-43.527343h8.042969c1.300781 0 2.457031.839843 2.855469 2.078124.011718.035157.023437.074219.035156.113282l25.386718 33.667968 11.976563-9.023437c1.066406-.804687 2.542969-.804687 3.609375 0l11.976562 9.023437 25.390626-33.671874c.011718-.039063.023437-.078126.039062-.117188.398438-1.234375 1.550781-2.070312 2.851562-2.070312h6.40625c24 0 43.527344 19.527343 43.527344 43.53125v36.742187c0 1.65625-1.34375 3-3 3zm-176.625-6h173.625v-33.746094c0-20.691406-16.835937-37.527343-37.53125-37.527343h-4.652344l-27.046874 35.867187c-.992188 1.324219-2.875 1.585937-4.199219.589844l-12.566407-9.46875-12.570312 9.46875c-1.320312.996093-3.199219.730469-4.199219-.589844l-27.042969-35.867187h-6.289062c-20.695312 0-37.53125 16.835937-37.53125 37.527343v33.746094zm0 0" fill="#3a312a"/><path d="m35.21875 260.976562c-5.792969-6.636718-15.867188-7.316406-22.5-1.527343-6.636719 5.792969-7.320312 15.867187-1.527344 22.503906 5.792969 6.632813 15.867188 7.316406 22.5 1.523437 6.636719-5.792968 7.320313-15.863281 1.527344-22.5zm0 0" fill="#fce8cb" fill-rule="evenodd"/><path d="m23.222656 290.417969c-10.449218 0-18.949218-8.5-18.949218-18.949219 0-10.445312 8.5-18.945312 18.949218-18.945312 10.449219 0 18.949219 8.5 18.949219 18.945312-.003906 10.449219-8.503906 18.949219-18.949219 18.949219zm0-31.894531c-7.140625 0-12.949218 5.808593-12.949218 12.945312 0 7.140625 5.804687 12.949219 12.949218 12.949219 7.136719 0 12.949219-5.808594 12.949219-12.949219-.003906-7.136719-5.8125-12.945312-12.949219-12.945312zm0 0" fill="#3a312a"/><path d="m165.867188 255.910156c-8.601563-1.898437-17.113282 3.53125-19.011719 12.132813-1.902344 8.601562 3.53125 17.113281 12.132812 19.011719 8.601563 1.898437 17.113281-3.53125 19.011719-12.132813s-3.535156-17.113281-12.132812-19.011719zm0 0" fill="#fce8cb" fill-rule="evenodd"/><path d="m162.414062 290.417969c-10.449218 0-18.949218-8.5-18.949218-18.949219 0-10.445312 8.5-18.945312 18.949218-18.945312 10.449219 0 18.949219 8.5 18.949219 18.945312 0 10.449219-8.5 18.949219-18.949219 18.949219zm0-31.894531c-7.136718 0-12.949218 5.808593-12.949218 12.945312 0 7.140625 5.808594 12.949219 12.949218 12.949219 7.140626 0 12.949219-5.808594 12.949219-12.949219 0-7.136719-5.808593-12.945312-12.949219-12.945312zm0 0" fill="#3a312a"/><path d="m163.515625 263.726562c0 39.046876-37.605469 98.976563-70.699219 98.976563-31.585937 0-70.695312-59.929687-70.695312-98.976563 0-39.042968 31.652344-70.695312 70.695312-70.695312 39.046875 0 70.699219 31.652344 70.699219 70.695312zm0 0" fill="#fce8cb"/><path d="m92.816406 365.703125c-15.691406 0-33.792968-13.171875-49.664062-36.136719-14.824219-21.457031-24.03125-46.683594-24.03125-65.839844 0-40.632812 33.058594-73.695312 73.695312-73.695312 40.640625 0 73.703125 33.058594 73.703125 73.695312 0 19.371094-8.992187 44.589844-23.460937 65.820313-15.664063 22.980469-33.976563 36.15625-50.242188 36.15625zm0-169.671875c-37.328125 0-67.699218 30.371094-67.699218 67.699219 0 36.46875 37.820312 95.976562 67.699218 95.976562 14.042969 0 30.96875-12.539062 45.28125-33.535156 13.828125-20.292969 22.417969-44.214844 22.417969-62.441406 0-37.328125-30.367187-67.699219-67.699219-67.699219zm0 0" fill="#3a312a"/><path d="m74.757812 262.929688c0 3.8125-3.089843 6.902343-6.898437 6.902343-3.8125 0-6.902344-3.089843-6.902344-6.902343 0-3.808594 3.089844-6.898438 6.902344-6.898438 3.808594 0 6.898437 3.089844 6.898437 6.898438zm0 0" fill="#3a312a"/><path d="m124.679688 262.929688c0 3.8125-3.089844 6.902343-6.902344 6.902343s-6.898438-3.089843-6.898438-6.902343c0-3.808594 3.089844-6.898438 6.898438-6.898438 3.8125 0 6.902344 3.089844 6.902344 6.898438zm0 0" fill="#3a312a"/><path d="m65.953125 283.445312c0 4.910157-5.320313 8.886719-11.886719 8.886719-6.5625 0-11.886718-3.976562-11.886718-8.886719 0-4.90625 5.324218-8.886718 11.886718-8.886718 6.566406 0 11.886719 3.980468 11.886719 8.886718zm0 0" fill="#f5978a"/><path d="m143.457031 283.445312c0 4.910157-5.324219 8.886719-11.886719 8.886719s-11.886718-3.976562-11.886718-8.886719c0-4.90625 5.324218-8.886718 11.886718-8.886718s11.886719 3.980468 11.886719 8.886718zm0 0" fill="#f5978a"/><path d="m93.632812 177.429688c-40.414062 0-73.171874 31.320312-73.171874 69.957031 0 4.089843.738281 7.136719 2.113281 10.945312.648437 1.792969 11.125-3.941406 12.019531-4.566406 4.460938-3.144531 8.105469-7.398437 10.832031-12.105469 1.125-1.960937 2.0625-3.949218 2.820313-5.941406 2.410156-6.355469 8.964844-24.039062 15.621094-22.652344 8.921874 1.859375 19.035156 2.910156 29.765624 2.910156 10.726563 0 20.84375-1.050781 29.765626-2.910156 6.652343-1.386718 13.207031 16.296875 15.621093 22.652344.753907 1.992188 1.695313 3.984375 2.820313 5.941406 4.503906 7.785156 12.105468 15.199219 21.355468 16.546875.023438-.445312.585938-.597656 1.007813-.75 3.027344-1.101562 2.601563-7.640625 2.601563-10.070312.003906-38.636719-32.757813-69.957031-73.171876-69.957031zm0 0" fill="#87796f"/><path d="m23.140625 261.636719c-.421875 0-.796875-.046875-1.128906-.148438-1.066407-.335937-1.890625-1.117187-2.257813-2.140625-1.375-3.804687-2.292968-7.296875-2.292968-11.960937 0-40.226563 34.171874-72.957031 76.175781-72.957031 42.003906 0 76.175781 32.730468 76.175781 72.957031l.007812.777343c.050782 3.574219.148438 10.183594-4.371093 12.03125-.105469.121094-.222657.234376-.347657.335938-.652343.535156-1.496093.765625-2.335937.648438-8.957031-1.308594-17.75-8.042969-23.519531-18.015626-1.1875-2.0625-2.207032-4.207031-3.03125-6.378906l-.152344-.40625c-7.652344-20.183594-11.378906-20.519531-12.046875-20.371094-9.472656 1.972657-19.695313 2.972657-30.378906 2.972657-10.6875 0-20.910157-1.003907-30.375-2.972657-.671875-.132812-4.402344.1875-12.054688 20.375l-.152343.402344c-.824219 2.167969-1.839844 4.3125-3.027344 6.375-3.082032 5.324219-7.128906 9.839844-11.707032 13.058594-.089843.0625-8.757812 5.417969-13.179687 5.417969zm70.492187-81.207031c-38.691406 0-70.171874 30.035156-70.171874 66.957031 0 3.039062.449218 5.375 1.246093 7.90625 2.558594-.933594 7.105469-3.285157 8.183594-3.996094 3.847656-2.707031 7.289063-6.566406 9.9375-11.136719 1.023437-1.777344 1.902344-3.628906 2.617187-5.503906l.148438-.398438c5.121094-13.503906 10.914062-25.796874 18.886719-24.125 9.066406 1.890626 18.878906 2.847657 29.152343 2.847657 10.277344 0 20.085938-.957031 29.15625-2.847657 7.9375-1.675781 13.765626 10.617188 18.882813 24.121094l.152344.402344c.710937 1.875 1.589843 3.726562 2.617187 5.507812 4.554688 7.878907 11.160156 13.335938 17.875 14.835938.234375-.121094.488282-.230469.773438-.328125.335937-.347656.796875-1.804687.730468-6.421875l-.011718-.863281c0-36.921875-31.480469-66.957031-70.175782-66.957031zm0 0" fill="#3a312a"/><path d="m51.433594 372.039062 14.433594-10.878906 27.84375 36.949219-14.433594 10.878906zm0 0" fill="#87796f"/><path d="m79.261719 411.992188c-.140625 0-.28125-.007813-.417969-.03125-.789062-.109376-1.5-.527344-1.980469-1.164063l-27.84375-36.945313c-.480469-.636718-.6875-1.433593-.574219-2.222656.109376-.785156.527344-1.5 1.164063-1.976562l14.433594-10.878906c1.320312-1 3.203125-.734376 4.203125.589843l27.84375 36.945313c.996094 1.324218.730468 3.207031-.59375 4.203125l-14.429688 10.875c-.523437.394531-1.160156.605469-1.804687.605469zm-23.644531-39.359376 24.234374 32.15625 9.636719-7.265624-24.230469-32.15625zm0 0" fill="#3a312a"/><path d="m108.027344 408.984375-14.4375-10.875 27.847656-36.949219 14.433594 10.878906zm0 0" fill="#87796f"/><path d="m108.007812 411.992188c-.628906 0-1.265624-.195313-1.804687-.605469l-14.433594-10.875c-.636719-.476563-1.054687-1.1875-1.164062-1.976563-.113281-.789062.09375-1.589844.574219-2.222656l27.84375-36.945312c.996093-1.324219 2.878906-1.589844 4.199218-.589844l14.433594 10.878906c.636719.476562 1.054688 1.1875 1.167969 1.976562.113281.789063-.097657 1.585938-.574219 2.222657l-27.84375 36.945312c-.589844.777344-1.492188 1.191407-2.398438 1.191407zm-10.230468-14.46875 9.640625 7.265624 24.230469-32.152343-9.640626-7.265625zm0 0" fill="#3a312a"/><path d="m36.648438 452.203125c-1.65625 0-3-1.34375-3-3v-29.03125c0-1.65625 1.34375-3 3-3s3 1.34375 3 3v29.03125c0 1.65625-1.34375 3-3 3zm0 0" fill="#3a312a"/><path d="m150.621094 452.203125c-1.65625 0-3-1.34375-3-3v-29.03125c0-1.65625 1.34375-3 3-3s3 1.34375 3 3v29.03125c0 1.65625-1.34375 3-3 3zm0 0" fill="#3a312a"/><path d="m33.011719 191.160156c12 15.109375 26.355469 31.21875 43.695312 36.148438 27.925781 7.941406 77.351563-1.960938 77.351563-42.15625 0-25.703125-21.539063-56.769532-61.746094-33.117188-49.835938 29.320313-78.761719-27.039062-78.761719-1.335937 0 8.125 3.273438 16.226562 7.570313 23.597656zm0 0" fill="#87796f"/><path d="m96.246094 232.824219c-7.371094 0-14.386719-.933594-20.359375-2.628907-17.824219-5.070312-32.269531-20.859374-45.226563-37.171874-.03125-.042969-.066406-.089844-.101562-.136719l-11.890625-16.859375c-.050781-.070313-.097657-.144532-.140625-.21875-5.371094-9.210938-7.976563-17.425782-7.976563-25.109375 0-3.375.390625-7.472657 3.457031-9.207031 3.621094-2.054688 7.859376.488281 14.273438 4.335937 12.714844 7.628906 34.007812 20.390625 62.511719 3.625 21.601562-12.707031 36.59375-9.390625 45.363281-4.375 14.445312 8.261719 20.90625 26.082031 20.90625 40.074219 0 14.191406-5.929688 26.171875-17.15625 34.648437-12.117188 9.148438-28.625 13.023438-43.660156 13.023438zm-60.832032-43.464844c12.316407 15.5 25.945313 30.46875 42.113282 35.0625 16.714844 4.753906 42.269531 3.042969 58.761718-9.410156 9.800782-7.40625 14.773438-17.453125 14.773438-29.863281 0-12.261719-5.53125-27.796876-17.886719-34.863282-10.605469-6.070312-24.210937-4.566406-39.339843 4.335938-31.578126 18.574218-55.691407 4.117187-68.640626-3.652344-3.03125-1.816406-6.757812-4.050781-8.179687-4.1875-.160156.382812-.464844 1.429688-.464844 3.917969 0 6.5625 2.324219 13.753906 7.097657 21.976562zm0 0" fill="#3a312a"/><path d="m92.816406 324.074219c-10.375 0-17.863281-4.664063-22.246094-13.871094-.710937-1.496094-.074218-3.285156 1.421876-3.996094 1.492187-.714843 3.285156-.078125 3.996093 1.417969 3.394531 7.128906 8.742188 10.449219 16.828125 10.449219 10.207032 0 15.402344-6.675781 16.722656-10.210938.582032-1.550781 2.3125-2.339843 3.863282-1.757812 1.550781.582031 2.339844 2.3125 1.757812 3.863281-2.542968 6.792969-10.621094 14.105469-22.34375 14.105469zm0 0" fill="#3a312a"/><path d="m447.960938 412.472656v36.726563h-179.625v-36.726563c0-22.386718 18.140624-40.53125 40.527343-40.53125h26.792969v-17.492187h.457031c7.375 5.195312 14.902344 8.253906 22.035157 8.253906 7.4375 0 15.101562-3.027344 22.507812-8.164063v17.402344h26.777344c22.382812 0 40.527344 18.144532 40.527344 40.53125zm0 0" fill="#fce8cb"/><path d="m447.964844 452.199219h-179.628906c-1.65625 0-3-1.339844-3-3v-36.726563c0-24.003906 19.527343-43.53125 43.527343-43.53125h23.792969v-14.492187c0-1.660157 1.34375-3 3-3h.453125c.621094 0 1.222656.191406 1.730469.546875 7.257812 5.113281 14.089844 7.707031 20.304687 7.707031 6.5 0 13.496094-2.566406 20.796875-7.628906.917969-.636719 2.113282-.707031 3.101563-.191407.988281.519532 1.609375 1.542969 1.609375 2.65625v14.402344h23.777344c24.003906 0 43.53125 19.527344 43.53125 43.53125v36.726563c.003906 1.660156-1.339844 3-2.996094 3zm-176.628906-6h173.625v-33.726563c0-20.695312-16.835938-37.53125-37.53125-37.53125h-26.777344c-1.65625 0-3-1.339844-3-3v-11.964844c-6.6875 3.804688-13.226563 5.726563-19.503906 5.726563-6.1875 0-12.722657-2.023437-19.492188-6.03125v12.269531c0 1.660156-1.34375 3-3 3h-26.792969c-20.691406 0-37.527343 16.835938-37.527343 37.53125zm0 0" fill="#3a312a"/><path d="m447.964844 412.460938v36.742187h-179.628906v-36.742187c0-22.386719 18.144531-40.53125 40.53125-40.53125h8.039062l-.164062.121093 27.851562 36.941407 14.375-10.828126 14.375 10.828126 27.851562-36.941407-.167968-.121093h6.40625c22.386718 0 40.53125 18.144531 40.53125 40.53125zm0 0" fill="#d7e057"/><path d="m447.964844 452.203125h-179.628906c-1.65625 0-3-1.34375-3-3v-36.746094c0-24 19.527343-43.527343 43.527343-43.527343h8.042969c1.296875 0 2.449219.835937 2.851562 2.070312.015626.039062.027344.078125.035157.117188l25.390625 33.671874 11.976562-9.027343c1.066406-.804688 2.542969-.804688 3.609375 0l11.976563 9.027343 25.386718-33.667968c.011719-.039063.023438-.078125.035157-.117188.398437-1.238281 1.554687-2.078125 2.855469-2.078125h6.410156c24 0 43.527344 19.527344 43.527344 43.53125v36.742188c.003906 1.660156-1.339844 3.003906-2.996094 3.003906zm-176.628906-6h173.625v-33.746094c0-20.691406-16.835938-37.527343-37.527344-37.527343h-4.65625l-27.042969 35.867187c-.996094 1.324219-2.875 1.585937-4.199219.589844l-12.570312-9.46875-12.566406 9.46875c-1.320313.996093-3.203126.730469-4.199219-.589844l-27.046875-35.867187h-6.289063c-20.695312 0-37.53125 16.835937-37.53125 37.527343v33.746094zm0 0" fill="#3a312a"/><path d="m303.613281 266.289062c-2.867187-8.328124-11.941406-12.757812-20.269531-9.894531s-12.757812 11.9375-9.894531 20.269531c2.867187 8.328126 11.9375 12.757813 20.269531 9.890626 8.328125-2.863282 12.757812-11.9375 9.894531-20.265626zm0 0" fill="#fce8cb" fill-rule="evenodd"/><path d="m288.554688 290.417969c-10.449219 0-18.949219-8.5-18.949219-18.949219 0-10.445312 8.5-18.945312 18.949219-18.945312 10.449218 0 18.949218 8.5 18.949218 18.945312-.003906 10.449219-8.503906 18.949219-18.949218 18.949219zm0-31.894531c-7.140626 0-12.949219 5.808593-12.949219 12.945312 0 7.140625 5.808593 12.949219 12.949219 12.949219 7.136718 0 12.949218-5.808594 12.949218-12.949219-.003906-7.136719-5.8125-12.945312-12.949218-12.945312zm0 0" fill="#3a312a"/><path d="m439.734375 260.992188c-5.792969-6.632813-15.863281-7.316407-22.5-1.523438s-7.316406 15.863281-1.527344 22.5c5.792969 6.636719 15.867188 7.320312 22.503907 1.527344 6.632812-5.792969 7.316406-15.867188 1.523437-22.503906zm0 0" fill="#fce8cb" fill-rule="evenodd"/><path d="m427.746094 290.417969c-10.445313 0-18.945313-8.5-18.945313-18.949219 0-10.445312 8.5-18.945312 18.945313-18.945312 10.449218 0 18.949218 8.5 18.949218 18.945312 0 10.449219-8.5 18.949219-18.949218 18.949219zm0-31.894531c-7.136719 0-12.945313 5.808593-12.945313 12.945312 0 7.140625 5.808594 12.949219 12.945313 12.949219 7.140625 0 12.949218-5.808594 12.949218-12.949219 0-7.136719-5.808593-12.945312-12.949218-12.945312zm0 0" fill="#3a312a"/><path d="m428.847656 263.726562c0 39.046876-37.605468 98.976563-70.699218 98.976563-31.589844 0-70.695313-59.929687-70.695313-98.976563 0-39.042968 31.652344-70.695312 70.695313-70.695312 39.046874 0 70.699218 31.652344 70.699218 70.695312zm0 0" fill="#fce8cb"/><path d="m358.152344 365.703125c-15.691406 0-33.792969-13.171875-49.664063-36.136719-14.824219-21.457031-24.035156-46.683594-24.035156-65.839844 0-40.632812 33.0625-73.695312 73.699219-73.695312 40.636718 0 73.699218 33.058594 73.699218 73.695312 0 19.371094-8.988281 44.589844-23.460937 65.820313-15.664063 22.980469-33.976563 36.15625-50.238281 36.15625zm0-169.671875c-37.328125 0-67.699219 30.371094-67.699219 67.699219 0 36.46875 37.820313 95.976562 67.699219 95.976562 14.039062 0 30.96875-12.539062 45.28125-33.535156 13.828125-20.292969 22.417968-44.214844 22.417968-62.441406-.003906-37.328125-30.375-67.699219-67.699218-67.699219zm0 0" fill="#3a312a"/><path d="m340.09375 262.929688c0 3.8125-3.089844 6.902343-6.902344 6.902343-3.808594 0-6.898437-3.089843-6.898437-6.902343 0-3.808594 3.089843-6.898438 6.898437-6.898438 3.8125 0 6.902344 3.089844 6.902344 6.898438zm0 0" fill="#3a312a"/><path d="m390.011719 262.929688c0 3.8125-3.089844 6.902343-6.898438 6.902343-3.8125 0-6.902343-3.089843-6.902343-6.902343 0-3.808594 3.089843-6.898438 6.902343-6.898438 3.808594 0 6.898438 3.089844 6.898438 6.898438zm0 0" fill="#3a312a"/><path d="m331.285156 283.445312c0 4.910157-5.320312 8.886719-11.886718 8.886719-6.5625 0-11.882813-3.976562-11.882813-8.886719 0-4.90625 5.320313-8.886718 11.882813-8.886718 6.566406 0 11.886718 3.980468 11.886718 8.886718zm0 0" fill="#f5978a"/><path d="m408.789062 283.445312c0 4.910157-5.320312 8.886719-11.886718 8.886719-6.5625 0-11.882813-3.976562-11.882813-8.886719 0-4.90625 5.320313-8.886718 11.882813-8.886718 6.566406 0 11.886718 3.980468 11.886718 8.886718zm0 0" fill="#f5978a"/><path d="m358.964844 177.429688c-40.410156 0-73.171875 31.320312-73.171875 69.957031 0 4.089843.738281 7.136719 2.113281 10.945312.648438 1.792969 11.125-3.941406 12.019531-4.566406 4.460938-3.144531 8.105469-7.398437 10.832031-12.105469 1.125-1.960937 2.0625-3.949218 2.820313-5.941406 2.410156-6.355469 8.964844-24.039062 15.621094-22.652344 8.921875 1.859375 19.035156 2.910156 29.765625 2.910156 10.730468 0 20.84375-1.050781 29.765625-2.910156 6.652343-1.386718 13.207031 16.296875 15.621093 22.652344.753907 1.992188 1.695313 3.984375 2.820313 5.941406 4.503906 7.785156 12.105469 15.199219 21.355469 16.546875.023437-.445312.585937-.597656 1.007812-.75 3.027344-1.101562 2.601563-7.640625 2.601563-10.070312.003906-38.636719-32.757813-69.957031-73.171875-69.957031zm0 0" fill="#87796f"/><path d="m288.472656 261.640625c-.417968 0-.796875-.046875-1.128906-.152344-1.066406-.335937-1.886719-1.117187-2.257812-2.136719-1.375-3.808593-2.292969-7.300781-2.292969-11.960937 0-40.230469 34.171875-72.960937 76.175781-72.960937 42 0 76.171875 32.730468 76.171875 72.960937l.007813.777344c.054687 3.574219.152343 10.179687-4.367188 12.027343-.105469.121094-.222656.234376-.347656.335938-.652344.539062-1.5.765625-2.335938.648438-8.960937-1.304688-17.75-8.042969-23.519531-18.011719-1.1875-2.066407-2.203125-4.210938-3.03125-6.378907l-.152344-.402343c-7.652343-20.1875-11.390625-20.523438-12.046875-20.375-9.472656 1.972656-19.695312 2.972656-30.378906 2.972656-10.6875 0-20.910156-1-30.378906-2.972656-.667969-.140625-4.394532.183593-12.046875 20.371093l-.15625.40625c-.824219 2.171876-1.839844 4.316407-3.027344 6.375-3.082031 5.328126-7.128906 9.839844-11.707031 13.0625-.089844.054688-8.757813 5.414063-13.179688 5.414063zm70.496094-81.210937c-38.695312 0-70.175781 30.035156-70.175781 66.957031 0 3.039062.449219 5.375 1.25 7.90625 2.558593-.933594 7.105469-3.285157 8.179687-3.996094 3.847656-2.707031 7.292969-6.566406 9.941406-11.136719 1.023438-1.777344 1.902344-3.628906 2.613282-5.503906l.152344-.402344c5.121093-13.503906 10.914062-25.796875 18.882812-24.121094 9.070312 1.890626 18.878906 2.847657 29.15625 2.847657s20.085938-.957031 29.152344-2.847657c7.949218-1.664062 13.765625 10.617188 18.886718 24.125l.148438.398438c.710938 1.875 1.59375 3.726562 2.621094 5.507812 4.554687 7.882813 11.15625 13.335938 17.875 14.835938.226562-.121094.480468-.226562.761718-.328125.34375-.347656.804688-1.804687.738282-6.417969l-.011719-.867187c0-36.921875-31.480469-66.957031-70.171875-66.957031zm0 0" fill="#3a312a"/><path d="m316.765625 372.027344 14.433594-10.878906 27.84375 36.945312-14.433594 10.878906zm0 0" fill="#87796f"/><path d="m344.59375 411.992188c-.910156 0-1.808594-.410157-2.398438-1.195313l-27.84375-36.945313c-.476562-.636718-.6875-1.433593-.574218-2.222656.113281-.785156.53125-1.5 1.167968-1.976562l14.433594-10.878906c1.316406-1 3.203125-.734376 4.199219.589843l27.84375 36.945313c.476563.636718.6875 1.4375.574219 2.222656-.113282.789062-.53125 1.5-1.167969 1.980469l-14.433594 10.875c-.535156.40625-1.171875.605469-1.800781.605469zm-23.644531-39.355469 24.234375 32.152343 9.640625-7.265624-24.230469-32.152344zm0 0" fill="#3a312a"/><path d="m373.355469 408.976562-14.429688-10.878906 27.84375-36.945312 14.433594 10.878906zm0 0" fill="#87796f"/><g fill="#3a312a"><path d="m373.339844 411.992188c-.628906 0-1.265625-.195313-1.800782-.605469l-14.433593-10.875c-.636719-.476563-1.054688-1.1875-1.167969-1.976563-.113281-.789062.097656-1.589844.574219-2.222656l27.84375-36.945312c.996093-1.324219 2.878906-1.589844 4.203125-.589844l14.433594 10.878906c.636718.476562 1.054687 1.1875 1.164062 1.976562.113281.789063-.09375 1.585938-.570312 2.222657l-27.847657 36.945312c-.589843.777344-1.488281 1.191407-2.398437 1.191407zm-10.230469-14.46875 9.644531 7.265624 24.230469-32.152343-9.640625-7.265625zm0 0"/><path d="m301.980469 452.203125c-1.65625 0-3-1.34375-3-3v-29.03125c0-1.65625 1.34375-3 3-3s3 1.34375 3 3v29.03125c0 1.65625-1.34375 3-3 3zm0 0"/><path d="m415.953125 452.203125c-1.65625 0-3-1.34375-3-3v-29.03125c0-1.65625 1.34375-3 3-3s3 1.34375 3 3v29.03125c0 1.65625-1.34375 3-3 3zm0 0"/><path d="m358.148438 324.074219c-10.375 0-17.863282-4.664063-22.242188-13.871094-.710938-1.496094-.078125-3.285156 1.417969-3.996094 1.496093-.710937 3.289062-.078125 4 1.417969 3.390625 7.128906 8.738281 10.449219 16.824219 10.449219 10.207031 0 15.402343-6.679688 16.726562-10.210938.582031-1.550781 2.304688-2.339843 3.863281-1.757812 1.550781.582031 2.335938 2.3125 1.753907 3.863281-2.542969 6.792969-10.621094 14.105469-22.34375 14.105469zm0 0"/></g><path d="m297.828125 273.710938c-8.710937-1.296876-16.824219 4.714843-18.121094 13.429687-1.296875 8.710937 4.714844 16.824219 13.429688 18.117187 8.710937 1.296876 16.824219-4.714843 18.117187-13.425781 1.296875-8.710937-4.714844-16.824219-13.425781-18.121093zm0 0" fill="#fce8cb" fill-rule="evenodd"/><path d="m295.480469 308.417969c-10.445313 0-18.945313-8.5-18.945313-18.949219 0-10.445312 8.5-18.945312 18.945313-18.945312 10.449219 0 18.949219 8.5 18.949219 18.945312 0 10.449219-8.5 18.949219-18.949219 18.949219zm0-31.894531c-7.136719 0-12.945313 5.808593-12.945313 12.945312 0 7.140625 5.808594 12.949219 12.945313 12.949219 7.140625 0 12.949219-5.808594 12.949219-12.949219 0-7.136719-5.808594-12.945312-12.949219-12.945312zm0 0" fill="#3a312a"/><path d="m436.546875 189s-34.171875 35.875-76.328125 35.875-57.335938-16.0625-57.335938-35.875c0-19.816406 15.179688-35.882812 57.335938-35.882812 42.15625.003906 76.328125 35.882812 76.328125 35.882812zm0 0" fill="#87796f" fill-rule="evenodd"/><path d="m360.21875 227.878906c-52.5 0-60.335938-24.359375-60.335938-38.878906s7.835938-38.878906 60.335938-38.878906c42.945312 0 77.070312 35.308594 78.5 36.8125 1.105469 1.160156 1.105469 2.980468 0 4.136718-1.429688 1.503907-35.554688 36.808594-78.5 36.808594zm0-71.757812c-35.546875 0-54.335938 11.371094-54.335938 32.878906s18.789063 32.875 54.335938 32.875c34.59375 0 64.066406-25.363281 72.039062-32.875-7.980468-7.511719-37.5-32.878906-72.039062-32.878906zm0 0" fill="#3a312a"/><path d="m149.050781 250.777344h151.734375v173.667968h-151.734375zm0 0" fill="#87796f"/><path d="m300.785156 427.445312h-151.734375c-1.65625 0-3-1.339843-3-3v-173.667968c0-1.660156 1.34375-3 3-3h151.734375c1.65625 0 3 1.339844 3 3v173.667968c0 1.660157-1.34375 3-3 3zm-148.734375-6h145.734375v-167.667968h-145.734375zm0 0" fill="#3a312a"/><path d="m315.734375 449.203125v-18.378906c0-22.386719-18.140625-40.53125-40.527344-40.53125h-26.777343v-17.402344c-7.40625 5.132813-15.070313 8.164063-22.507813 8.164063-7.132813 0-14.660156-3.058594-22.039063-8.257813h-.453124v17.496094h-26.792969c-22.382813 0-40.53125 18.144531-40.53125 40.53125v18.378906zm0 0" fill="#fce8cb"/><path d="m315.734375 452.203125h-179.625c-1.65625 0-3-1.34375-3-3v-18.382813c0-24.003906 19.527344-43.53125 43.527344-43.53125h23.792969v-14.492187c0-1.660156 1.34375-3 3-3h.453124c.621094 0 1.222657.191406 1.730469.546875 7.257813 5.113281 14.09375 7.707031 20.308594 7.707031 6.496094 0 13.492187-2.566406 20.796875-7.628906.921875-.636719 2.113281-.707031 3.101562-.191406.988282.519531 1.609376 1.542969 1.609376 2.65625v14.402343h23.777343c24.003907 0 43.53125 19.53125 43.53125 43.53125v18.382813c-.003906 1.65625-1.347656 3-3.003906 3zm-176.625-6h173.625v-15.382813c0-20.695312-16.835937-37.53125-37.53125-37.53125h-26.777344c-1.65625 0-3-1.339843-3-3v-11.960937c-6.6875 3.800781-13.230469 5.722656-19.507812 5.722656-6.183594 0-12.722657-2.023437-19.488281-6.03125v12.269531c0 1.660157-1.34375 3-3 3h-26.792969c-20.695313 0-37.53125 16.835938-37.53125 37.53125v15.382813zm0 0" fill="#3a312a"/><path d="m315.734375 449.203125v-18.394531c0-22.382813-18.140625-40.527344-40.527344-40.527344h-6.40625l.164063.121094-27.851563 36.941406-14.375-10.832031-14.371093 10.832031-27.855469-36.941406.167969-.121094h-8.042969c-22.386719 0-40.53125 18.144531-40.53125 40.527344v18.394531zm0 0" fill="#f16c7a"/><path d="m315.734375 452.203125h-179.625c-1.65625 0-3-1.34375-3-3v-18.394531c0-24.003906 19.527344-43.53125 43.527344-43.53125h8.042969c1.296874 0 2.449218.835937 2.851562 2.070312.015625.039063.027344.078125.039062.117188l25.386719 33.671875 11.976563-9.023438c1.066406-.804687 2.542968-.804687 3.609375 0l11.980469 9.027344 25.386718-33.675781c.011719-.039063.023438-.078125.035156-.117188.402344-1.234375 1.550782-2.070312 2.851563-2.070312h6.40625c24.003906 0 43.53125 19.527344 43.53125 43.53125v18.394531c0 1.65625-1.339844 3-3 3zm-176.625-6h173.625v-15.394531c0-20.695313-16.835937-37.53125-37.53125-37.53125h-4.652344l-27.042969 35.871094c-.992187 1.320312-2.875 1.585937-4.199218.589843l-12.570313-9.472656-12.566406 9.472656c-1.328125.996094-3.207031.730469-4.203125-.589843l-27.039062-35.871094h-6.292969c-20.695313 0-37.53125 16.835937-37.53125 37.53125v15.394531zm0 0" fill="#3a312a"/><path d="m171.0625 283.675781c-3.386719-8.128906-12.722656-11.972656-20.855469-8.585937-8.128906 3.386718-11.976562 12.722656-8.585937 20.855468 3.386718 8.128907 12.722656 11.972657 20.855468 8.585938 8.128907-3.386719 11.972657-12.722656 8.585938-20.855469zm0 0" fill="#fce8cb" fill-rule="evenodd"/><path d="m156.324219 308.769531c-10.445313 0-18.945313-8.5-18.945313-18.949219 0-10.449218 8.5-18.949218 18.945313-18.949218 10.449219 0 18.949219 8.5 18.949219 18.949218 0 10.449219-8.5 18.949219-18.949219 18.949219zm0-31.898437c-7.136719 0-12.945313 5.808594-12.945313 12.949218 0 7.136719 5.808594 12.949219 12.945313 12.949219 7.140625 0 12.949219-5.808593 12.949219-12.949219 0-7.140624-5.808594-12.949218-12.949219-12.949218zm0 0" fill="#3a312a"/><path d="m306.792969 278.542969c-6.226563-6.226563-16.324219-6.226563-22.550781 0-6.230469 6.226562-6.230469 16.324219 0 22.554687 6.226562 6.226563 16.324218 6.226563 22.550781 0 6.230469-6.230468 6.230469-16.328125 0-22.554687zm0 0" fill="#fce8cb" fill-rule="evenodd"/><path d="m295.523438 308.769531c-10.453126 0-18.953126-8.5-18.953126-18.949219 0-10.449218 8.5-18.949218 18.953126-18.949218 10.445312 0 18.945312 8.5 18.945312 18.949218 0 10.449219-8.5 18.949219-18.945312 18.949219zm0-31.898437c-7.140626 0-12.953126 5.808594-12.953126 12.949218 0 7.136719 5.808594 12.949219 12.953126 12.949219 7.136718 0 12.945312-5.808593 12.945312-12.949219 0-7.140624-5.808594-12.949218-12.945312-12.949218zm0 0" fill="#3a312a"/><path d="m296.621094 282.078125c0 39.046875-37.601563 98.976563-70.695313 98.976563-31.589843 0-70.699219-59.933594-70.699219-98.976563 0-39.046875 31.652344-70.699219 70.699219-70.699219 39.042969 0 70.695313 31.65625 70.695313 70.699219zm0 0" fill="#fce8cb"/><path d="m225.925781 384.054688c-15.695312 0-33.792969-13.171876-49.664062-36.140626-14.824219-21.453124-24.035157-46.679687-24.035157-65.835937 0-40.636719 33.058594-73.699219 73.699219-73.699219 40.636719 0 73.695313 33.0625 73.695313 73.699219 0 19.367187-8.988282 44.589844-23.457032 65.820313-15.660156 22.976562-33.972656 36.15625-50.238281 36.15625zm0-169.675782c-37.328125 0-67.699219 30.371094-67.699219 67.699219 0 36.46875 37.820313 95.976563 67.699219 95.976563 14.039063 0 30.964844-12.539063 45.277344-33.535157 13.828125-20.292969 22.417969-44.214843 22.417969-62.441406 0-37.328125-30.367188-67.699219-67.695313-67.699219zm0 0" fill="#3a312a"/><path d="m207.863281 281.28125c0 3.8125-3.089843 6.898438-6.898437 6.898438-3.8125 0-6.902344-3.089844-6.902344-6.898438 0-3.8125 3.089844-6.902344 6.902344-6.902344 3.808594 0 6.898437 3.089844 6.898437 6.902344zm0 0" fill="#3a312a"/><path d="m257.785156 281.28125c0 3.808594-3.089844 6.898438-6.902344 6.898438-3.808593 0-6.898437-3.089844-6.898437-6.898438 0-3.8125 3.089844-6.902344 6.898437-6.902344 3.8125 0 6.902344 3.089844 6.902344 6.902344zm0 0" fill="#3a312a"/><path d="m199.058594 301.796875c0 4.90625-5.320313 8.886719-11.882813 8.886719-6.566406 0-11.886719-3.980469-11.886719-8.886719 0-4.910156 5.320313-8.886719 11.886719-8.886719 6.5625 0 11.882813 3.976563 11.882813 8.886719zm0 0" fill="#f5978a"/><path d="m276.5625 301.796875c0 4.90625-5.324219 8.886719-11.886719 8.886719s-11.886719-3.980469-11.886719-8.886719c0-4.910156 5.324219-8.886719 11.886719-8.886719s11.886719 3.976563 11.886719 8.886719zm0 0" fill="#f5978a"/><path d="m184.539062 390.378906 14.433594-10.878906 27.847656 36.945312-14.433593 10.878907zm0 0" fill="#87796f"/><path d="m212.367188 430.339844c-.910157 0-1.808594-.410156-2.398438-1.191406l-27.84375-36.949219c-.480469-.632813-.6875-1.433594-.574219-2.222657.109375-.785156.527344-1.5 1.164063-1.976562l14.433594-10.875c1.320312-1 3.203124-.734375 4.203124.589844l27.847657 36.945312c.476562.636719.683593 1.4375.574219 2.222656-.113282.789063-.53125 1.5-1.167969 1.976563l-14.433594 10.878906c-.539063.40625-1.175781.601563-1.804687.601563zm-23.644532-39.355469 24.234375 32.15625 9.640625-7.265625-24.234375-32.15625zm0 0" fill="#3a312a"/><path d="m241.128906 427.332031-14.433594-10.878906 27.847657-36.945313 14.429687 10.875zm0 0" fill="#87796f"/><path d="m241.113281 430.339844c-.628906 0-1.265625-.195313-1.804687-.601563l-14.433594-10.878906c-.636719-.476563-1.054688-1.1875-1.164062-1.976563-.113282-.789062.09375-1.589843.574218-2.222656l27.84375-36.945312c.996094-1.324219 2.882813-1.589844 4.203125-.589844l14.433594 10.875c.636719.476562 1.054687 1.191406 1.167969 1.976562.109375.789063-.097656 1.589844-.574219 2.222657l-27.847656 36.949219c-.589844.78125-1.488281 1.191406-2.398438 1.191406zm-10.230469-14.464844 9.640626 7.265625 24.234374-32.15625-9.640624-7.265625zm0 0" fill="#3a312a"/><path d="m225.921875 342.425781c-10.378906 0-17.863281-4.667969-22.242187-13.871093-.710938-1.496094-.078126-3.285157 1.417968-4 1.5-.710938 3.289063-.074219 4 1.421874 3.390625 7.128907 8.738282 10.449219 16.824219 10.449219 10.207031 0 15.402344-6.679687 16.722656-10.210937.578125-1.550782 2.3125-2.339844 3.863281-1.757813 1.550782.582031 2.339844 2.308594 1.757813 3.863281-2.542969 6.792969-10.621094 14.105469-22.34375 14.105469zm0 0" fill="#3a312a"/><path d="m306.382812 256.167969c0 7.242187-.941406 14.265625-2.726562 20.949219-18.105469-8.730469-35.332031-19.449219-51.289062-31.566407-4.679688-3.546875-9.289063-7.242187-13.691407-11.160156-5.402343-4.738281-10.511719-9.847656-15.121093-15.382813-10.023438-12.070312-17.382813-25.9375-23.613282-40.382812 7.863282-2.542969 16.253906-3.914062 24.96875-3.914062 23.304688 0 44.328125 9.789062 59.183594 25.484374 13.824219 14.589844 22.289062 34.289063 22.289062 55.972657zm0 0" fill="#87796f"/><path d="m303.65625 280.117188c-.445312 0-.886719-.101563-1.300781-.296876-17.847657-8.609374-35.277344-19.332031-51.800781-31.878906-5.273438-3.996094-9.808594-7.691406-13.871094-11.308594-5.796875-5.085937-10.992188-10.371093-15.433594-15.703124-8.988281-10.828126-16.636719-23.890626-24.058594-41.113282-.335937-.777344-.328125-1.65625.019532-2.425781.347656-.769531 1.003906-1.355469 1.808593-1.617187 8.324219-2.695313 17.035157-4.0625 25.890625-4.0625 23.445313 0 45.234375 9.382812 61.363282 26.421874 14.902343 15.726563 23.109374 36.335938 23.109374 58.035157 0 7.378906-.949218 14.691406-2.824218 21.71875-.230469.867187-.835938 1.582031-1.648438 1.957031-.398437.183594-.824218.273438-1.253906.273438zm-99.605469-99.589844c6.765625 15.164062 13.742188 26.84375 21.816407 36.566406 4.234374 5.089844 9.210937 10.152344 14.789062 15.046875 3.960938 3.523437 8.378906 7.121094 13.527344 11.023437 15.171875 11.519532 31.117187 21.472657 47.4375 29.613282 1.171875-5.417969 1.761718-10.988282 1.761718-16.605469 0-20.15625-7.621093-39.300781-21.460937-53.910156-14.984375-15.828125-35.230469-24.546875-57.007813-24.546875-7.105468-.003906-14.109374.941406-20.863281 2.8125zm0 0" fill="#3a312a"/><path d="m284.09375 200.195312c-14.015625 12.777344-29.265625 24.082032-45.414062 34.195313-28.636719 17.949219-60.039063 32.109375-92.175782 43.902344-1.988281-7.035157-3.046875-14.457031-3.046875-22.125 0-36.277344 23.714844-67.015625 56.488281-77.542969 7.859376-2.542969 16.25-3.914062 24.964844-3.914062 23.304688 0 44.328125 9.792968 59.183594 25.484374zm0 0" fill="#87796f"/><path d="m146.503906 281.292969c-.46875 0-.9375-.109375-1.363281-.328125-.746094-.378906-1.296875-1.050782-1.523437-1.855469-2.097657-7.425781-3.164063-15.144531-3.164063-22.941406 0-36.832031 23.539063-69.144531 58.570313-80.394531 8.316406-2.695313 17.027343-4.0625 25.886718-4.0625 23.441406 0 45.230469 9.386718 61.363282 26.421874.550781.585938.847656 1.371094.816406 2.171876-.03125.804687-.378906 1.566406-.976563 2.109374-13.511719 12.320313-28.9375 23.933594-45.847656 34.523438-26.285156 16.472656-56.617187 30.921875-92.730469 44.171875-.332031.125-.679687.183594-1.03125.183594zm78.40625-103.582031c-8.226562 0-16.316406 1.265624-24.042968 3.769531-32.546876 10.453125-54.410157 40.46875-54.410157 74.6875 0 6.148437.707031 12.242187 2.117188 18.164062 34.355469-12.792969 63.335937-26.707031 88.511719-42.480469 15.644531-9.800781 29.984374-20.484374 42.675781-31.789062-14.742188-14.4375-34.101563-22.351562-54.851563-22.351562zm0 0" fill="#3a312a"/><path d="m156.800781 86.144531v43.84375c0 6.734375 5.460938 12.199219 12.199219 12.199219h268.347656c6.738282 0 12.199219-5.464844 12.199219-12.199219v-114.515625c0-6.734375-5.460937-12.199218-12.199219-12.199218h-268.347656c-6.738281 0-12.199219 5.464843-12.199219 12.199218zm0 0" fill="#f16c7a"/><path d="m437.347656 145.1875h-268.347656c-8.382812 0-15.203125-6.816406-15.203125-15.199219v-43.84375c0-1.65625 1.34375-3 3-3s3 1.34375 3 3v43.84375c0 5.070313 4.128906 9.199219 9.203125 9.199219h268.347656c5.074219 0 9.199219-4.128906 9.199219-9.199219v-114.515625c0-5.070312-4.125-9.199218-9.199219-9.199218h-268.347656c-5.074219 0-9.203125 4.128906-9.203125 9.199218v44.195313c0 1.65625-1.34375 3-3 3s-3-1.34375-3-3v-44.195313c0-8.378906 6.820313-15.199218 15.203125-15.199218h268.347656c8.378906 0 15.199219 6.820312 15.199219 15.199218v114.515625c0 8.378907-6.820313 15.199219-15.199219 15.199219zm0 0" fill="#3a312a"/><path d="m288.621094 24.320312h-100.277344c-4.800781 0-8.695312 3.890626-8.695312 8.691407v79.433593c0 4.800782 3.894531 8.691407 8.695312 8.691407h229.65625c4.800781 0 8.691406-3.890625 8.691406-8.691407v-79.429687c0-4.800781-3.890625-8.691406-8.691406-8.691406h-129.378906zm0 0" fill="#fce8cb"/><path d="m418 124.140625h-229.652344c-6.449218 0-11.695312-5.246094-11.695312-11.691406v-79.433594c0-6.449219 5.246094-11.695313 11.695312-11.695313h100.277344c1.65625 0 3 1.34375 3 3s-1.34375 3-3 3h-100.277344c-3.140625 0-5.695312 2.554688-5.695312 5.695313v79.433594c0 3.136719 2.554687 5.691406 5.695312 5.691406h229.652344c3.136719 0 5.695312-2.554687 5.695312-5.691406v-79.433594c0-3.140625-2.554687-5.695313-5.695312-5.695313h-103.78125c-1.65625 0-3-1.34375-3-3s1.34375-3 3-3h103.78125c6.449219 0 11.695312 5.246094 11.695312 11.695313v79.433594c0 6.445312-5.246093 11.691406-11.695312 11.691406zm0 0" fill="#3a312a"/><path d="m262.890625 103.121094c-.0625 0-.121094 0-.1875-.003906-.964844-.0625-1.84375-.582032-2.355469-1.40625l-31.359375-50.136719-19.957031 42.007812c-.710938 1.5-2.5 2.132813-3.996094 1.421875-1.496094-.710937-2.132812-2.5-1.421875-3.996094l22.308594-46.960937c.464844-.988281 1.441406-1.640625 2.535156-1.707031 1.128907-.054688 2.136719.476562 2.714844 1.40625l32.039063 51.226562 19.660156-24.140625c.871094-1.070312 2.367187-1.410156 3.617187-.8125l26.621094 12.6875 22.710937-27.539062c.550782-.671875 1.371094-1.070313 2.238282-1.089844.863281-.039063 1.707031.332031 2.289062.972656l28.914063 31.613281 30.4375-14.679687c1.488281-.71875 3.285156-.097656 4.003906 1.394531.71875 1.492188.09375 3.289063-1.398437 4.007813l-32.449219 15.652343c-1.199219.578126-2.625.296876-3.515625-.679687l-28.085938-30.710937-22.007812 26.683593c-.871094 1.058594-2.355469 1.390625-3.605469.796875l-26.605469-12.679687-20.820312 25.566406c-.570313.703125-1.425782 1.105469-2.324219 1.105469zm0 0" fill="#3a312a"/><path d="m444.960938 412.46875v33.738281h-26v-26.039062c0-1.640625-1.359376-3-3-3-.359376 0-.679688.058593-1 .179687v-4.878906c0-13.058594-6.699219-24.601562-16.859376-31.320312l4.679688-6.21875h4.660156c20.679688-.003907 37.519532 16.839843 37.519532 37.539062zm0 0" fill="#b9c239"/><path d="m418.003906 27.328125h-30c3.136719 0 5.699219 2.539063 5.699219 5.679687v41.878907l6-2.898438c1.480469-.71875 3.277344-.101562 4 1.398438.71875 1.480469.097656 3.28125-1.402344 4l-8.597656 4.160156v30.902344c0 3.140625-2.5625 5.699219-5.699219 5.699219h30c3.136719 0 5.699219-2.558594 5.699219-5.699219v-79.441407c0-3.140624-2.5625-5.679687-5.699219-5.679687zm0 0" fill="#decaad"/></svg>