<svg id="Capa_1" enable-background="new 0 0 512 512" height="512" viewBox="0 0 512 512" width="512" xmlns="http://www.w3.org/2000/svg"><g><g><g><g><path d="m441.756 402c30.306-40.776 48.244-91.291 48.244-146 0-135.31-109.69-245-245-245s-245 109.69-245 245c0 54.709 17.938 105.224 48.244 146z" fill="#bbec6c"/></g></g><g><path d="m500.939 29h-269.894c-6.109 0-11.061 4.952-11.061 11.061v26.547l4.509 1h282.999l4.508-1v-26.547c0-6.109-4.952-11.061-11.061-11.061z" fill="#7a8c98"/></g><path d="m262 40.061c0-6.109 4.952-11.061 11.061-11.061h-42.016c-6.109 0-11.061 4.952-11.061 11.061v26.547h42.016z" fill="#596c76"/><g><g><g><path d="m439 397.5h-99.5v-33h99.5c9.113 0 16.5 7.387 16.5 16.5 0 9.113-7.387 16.5-16.5 16.5z" fill="#fff"/></g></g><path d="m339.5 364.5h24.5v33h-24.5z" fill="#eaf6ff"/><g><path d="m439 357h-104.5v15h104.5c4.962 0 9 4.038 9 9s-4.038 9-9 9h-104.5v12h116.102c7.385-4.097 12.398-11.973 12.398-21 0-13.233-10.767-24-24-24z" fill="#fe76a8"/></g></g><g><g><g><path d="m439 349.5h-99.5v-33h99.5c9.113 0 16.5 7.387 16.5 16.5 0 9.113-7.387 16.5-16.5 16.5z" fill="#fff"/></g></g><path d="m339.5 316.5h24.5v33h-24.5z" fill="#eaf6ff"/><path d="m439 309h-99.5c-4.142 0-7.5 3.358-7.5 7.5s3.358 7.5 7.5 7.5h99.5c4.962 0 9 4.038 9 9s-4.038 9-9 9h-104.5v15h104.5c13.233 0 24-10.767 24-24s-10.767-24-24-24z" fill="#978ecb"/></g><g><g><path d="m219.984 66.608v185.829c0 6.109 4.952 11.061 11.061 11.061h37.39v-30.498c0-4.962 4.038-9 9-9h177.114c4.962 0 9 4.038 9 9v30.498h37.39c6.109 0 11.061-4.952 11.061-11.061v-185.829z" fill="#fff3de"/><path d="m268.435 262.474c-3.795-1.753-6.435-5.583-6.435-10.037v-185.829h-42.016v185.829c0 6.109 4.952 11.061 11.061 11.061h37.39z" fill="#ffe5c2"/><g><path d="m440.774 132.676v-1.611h-.061v1.549z" fill="#978ecb"/><path d="m457.922 145.161h-11.935c-1.839 0-3.621-.356-5.275-1.028v29.644c0 1.657-1.343 3-3 3h-111.035c-10.106 0-19.218 6.084-23.091 15.419l-13.196 31.804h131.61v-20.935c0-1.657 1.343-3 3-3h29c5.523 0 10-4.477 10-10v-47.285c-1.603 1.473-3.734 2.381-6.078 2.381z" fill="#978ecb"/><path d="m342.685 176.777h-16.008c-10.106 0-19.218 6.084-23.091 15.419l-13.196 31.804h25.61l13.196-31.804c2.583-6.226 7.504-10.993 13.489-13.486z" fill="#8379c1"/></g><g><g><path d="m375.462 49h-18.94c-10.077 0-18.246 8.169-18.246 18.246 0 3.968 1.28 7.629 3.431 10.623 5.302-2.849 11.357-4.469 17.785-4.469h12.999c6.428 0 12.484 1.621 17.785 4.469 2.151-2.994 3.431-6.655 3.431-10.623.001-10.077-8.168-18.246-18.245-18.246z" fill="#fe9901"/></g><g><path d="m360 67.246c0-9.607 7.43-17.462 16.854-18.176-.461-.035-.922-.07-1.392-.07h-18.94c-10.077 0-18.246 8.169-18.246 18.246 0 3.968 1.28 7.629 3.431 10.623 5.302-2.849 11.357-4.469 17.785-4.469h1.595c-.695-1.923-1.087-3.99-1.087-6.154z" fill="#fb8801"/></g><g><g><path d="m367.789 193.261c-.538-.344-1.159-.526-1.797-.526s-1.259.182-1.796.526l-14.158 9.067c3.173 6.554 9.127 10.971 15.954 10.971s12.781-4.417 15.955-10.971z" fill="#fff"/></g><g><path d="m360.556 195.592-10.519 6.737c3.173 6.554 9.127 10.971 15.954 10.971 2.216 0 4.341-.465 6.308-1.318-5.996-2.598-10.52-8.799-11.743-16.39z" fill="#eaf6ff"/></g><path d="m365.987 171.834c-4.765 0-9.309-.963-13.451-2.701l-9.851 7.644v27.187c0 1.842 2.036 2.956 3.588 1.963l18.462-11.824c.766-.491 1.748-.491 2.514 0l18.462 11.824c1.551.993 3.588-.121 3.588-1.963v-27.187l-9.838-7.634c-4.211 1.764-8.771 2.691-13.474 2.691z" fill="#e8edf2"/><g><path d="m356 176.777 6.586-5.111c-3.529-.344-6.906-1.214-10.05-2.533l-9.851 7.644v27.187c0 1.842 2.036 2.956 3.588 1.963l9.727-6.23z" fill="#d9e7ec"/></g><path d="m365.987 171.834c-4.431 0-8.667-.84-12.57-2.354v8.213c0 .61.251 1.192.694 1.612l10.356 9.803c.856.81 2.195.81 3.051 0l10.356-9.803c.443-.419.694-1.002.694-1.612v-8.199c-3.961 1.531-8.208 2.34-12.581 2.34z" fill="#f6a96c"/></g><path d="m328.785 119.535h2.331v-2.692c0-2.886 2.348-5.234 5.234-5.234h31.55c3.223 0 6.31-1.196 8.692-3.367l6.044-5.509c2.057-1.875 4.595-2.866 7.339-2.866 5.025 0 10.544 3.53 10.875 10.072l.002 9.596h2.345c2.964 0 5.716.919 7.993 2.482v-10.917c0-21.374-17.327-38.701-38.701-38.701h-12.999c-21.374 0-38.701 17.327-38.701 38.701v10.917c2.28-1.563 5.031-2.482 7.996-2.482z" fill="#fea613"/><g><path d="m346 111.1c0-19.296 14.124-35.289 32.596-38.217-1.989-.315-4.027-.484-6.105-.484h-12.999c-21.374 0-38.701 17.327-38.701 38.701v10.917c2.277-1.563 5.029-2.482 7.993-2.482h2.331v-2.692c0-2.886 2.348-5.234 5.234-5.234h9.651z" fill="#fe9901"/></g><g><path d="m331.116 136.963v-18.429h-2.331c-8.374 0-15.163 6.789-15.163 15.163v1.722c0 8.374 6.789 15.163 15.163 15.163h5.102c-1.783-4.186-2.771-8.789-2.771-13.619z" fill="#f6a96c"/><path d="m403.199 118.535h-2.346l.004 18.419c.002 4.761-.95 9.374-2.755 13.628h5.097c8.374 0 15.163-6.789 15.163-15.163v-1.722c0-8.374-6.789-15.162-15.163-15.162z" fill="#ffbd86"/></g><g><path d="m401.85 109.888c-.502-9.904-12.558-14.575-19.887-7.895l-6.045 5.509c-2.192 1.998-5.052 3.106-8.018 3.106h-31.55c-3.443 0-6.235 2.791-6.235 6.235v20.121c0 19.811 16.06 35.871 35.871 35.871 19.815 0 35.877-16.066 35.871-35.881z" fill="#fed2a4"/></g><g><path d="m347 136.964v-20.121c0-3.443 2.791-6.234 6.235-6.234h-16.885c-3.443 0-6.234 2.791-6.234 6.234v20.121c0 19.811 16.06 35.871 35.871 35.871 2.909 0 5.734-.355 8.442-1.009-15.736-3.798-27.429-17.961-27.429-34.862z" fill="#ffbd86"/></g><g><g><g><path d="m352.581 133.732c-4.142 0-7.5-3.358-7.5-7.5v-4.328c0-4.142 3.358-7.5 7.5-7.5s7.5 3.358 7.5 7.5v4.328c0 4.142-3.358 7.5-7.5 7.5z" fill="#d88a55"/></g><g><path d="m379.403 133.732c-4.142 0-7.5-3.358-7.5-7.5v-4.328c0-4.142 3.358-7.5 7.5-7.5s7.5 3.358 7.5 7.5v4.328c0 4.142-3.358 7.5-7.5 7.5z" fill="#d88a55"/></g></g></g><g><path d="m347.581 145.379v1.75c0 8.213 6.658 14.871 14.871 14.871h7.08c8.213 0 14.871-6.658 14.871-14.871v-1.75c0-2.761-2.239-5-5-5h-26.822c-2.762 0-5 2.239-5 5z" fill="#fe93bb"/></g><path d="m361 147.129v-1.75c0-2.761 2.239-5 5-5h-13.419c-2.761 0-5 2.239-5 5v1.75c0 8.213 6.658 14.871 14.871 14.871h7.08c1.081 0 2.128-.131 3.141-.354-6.674-1.464-11.673-7.403-11.673-14.517z" fill="#fe76a8"/></g><g><g><path d="m454.549 279h-177.114c-5.523 0-10-4.477-10-10v-36c0-5.523 4.477-10 10-10h177.114c5.523 0 10 4.477 10 10v36c0 5.523-4.477 10-10 10z" fill="#fe76a8"/></g><path d="m301 269v-36c0-5.523 4.477-10 10-10h-33.565c-5.523 0-10 4.477-10 10v36c0 5.523 4.477 10 10 10h33.565c-5.523 0-10-4.477-10-10z" fill="#fe5694"/><g><g><path d="m442 259.5h-32.684c-4.142 0-7.5-3.358-7.5-7.5s3.358-7.5 7.5-7.5h32.684c4.142 0 7.5 3.358 7.5 7.5s-3.358 7.5-7.5 7.5z" fill="#fff"/></g><g><path d="m384.342 259.5h-94.358c-4.142 0-7.5-3.358-7.5-7.5s3.358-7.5 7.5-7.5h94.358c4.142 0 7.5 3.358 7.5 7.5s-3.358 7.5-7.5 7.5z" fill="#fff"/></g></g></g></g><g><circle cx="447.956" cy="48.357" fill="#fe76a8" r="7.5"/></g><g><g><circle cx="468.956" cy="48.357" fill="#fedf30" r="7.5"/></g></g><g><circle cx="489.956" cy="48.357" fill="#97d729" r="7.5"/></g></g><g><path d="m73.559 431c44.187 43.296 104.691 70 171.441 70s127.254-26.704 171.441-70z" fill="#c57a44"/></g><g><g><g><path d="m271.995 402v-84.077c0-26.877-21.788-48.666-48.666-48.666h-124.233c-22.912 0-42.115 15.839-47.285 37.161l-25.541 70.239c-3.301 9.078-1.433 18.417 3.713 25.343z" fill="#8ac9fe"/><path d="m123.012 269.257h-23.916c-22.912 0-42.115 15.839-47.285 37.161l-25.541 70.239c-3.301 9.078-1.433 18.417 3.713 25.343h33.379c-5.146-6.926-7.014-16.265-3.713-25.343l25.541-70.239c4.439-18.308 19.227-32.563 37.822-36.23z" fill="#60b7ff"/><path d="m169.887 261.794h-17.35c-5.716 0-11.202-.991-16.308-2.794l-13.218 10.257v44.561c0 3.019 3.338 4.845 5.88 3.217l30.26-19.38c1.256-.804 2.865-.804 4.12 0l30.26 19.38c2.543 1.628 5.88-.198 5.88-3.217v-44.561l-13.215-10.257c-5.107 1.803-10.593 2.794-16.309 2.794z" fill="#60b7ff"/><path d="m141.738 273.401c-.726-.687-1.137-1.642-1.137-2.641v-9.407c-1.815-.443-3.596-.976-5.327-1.611l-12.262 9.516v44.561c0 3.019 3.338 4.845 5.88 3.217l19.706-12.621v-24.519z" fill="#26a6fe"/><path d="m169.887 261.794h-17.35c-4.116 0-8.113-.516-11.936-1.474v10.439c0 .999.411 1.954 1.137 2.641l16.974 16.068c1.403 1.328 3.598 1.328 5.001 0l16.974-16.068c.726-.687 1.137-1.642 1.137-2.641v-10.439c-3.824.958-7.821 1.474-11.937 1.474z" fill="#ffbd86"/><g><path d="m158.137 273.401c-.726-.687-1.137-1.642-1.137-2.641v-8.966h-4.462c-4.116 0-8.113-.516-11.936-1.474v10.439c0 .999.411 1.954 1.137 2.641l16.974 16.068c1.403 1.328 3.598 1.328 5.001 0l5.699-5.395z" fill="#f6a96c"/></g></g><path d="m100.228 171.496h3.182v-10.694c0-12.101 9.844-21.945 21.945-21.945h71.717c12.101 0 21.945 9.844 21.945 21.945v10.694h3.182c4.836 0 9.338 1.451 13.101 3.934v-32.806c0-29.064-23.561-52.625-52.625-52.625h-79.34c-8.951 0-16.207 7.256-16.207 16.207v69.223c3.762-2.482 8.263-3.933 13.1-3.933z" fill="#fea613"/><g><path d="m129.828 106.207c0-8.951 7.256-16.207 16.207-16.207h-42.702c-8.951 0-16.207 7.256-16.207 16.207v69.223c3.763-2.483 8.265-3.934 13.101-3.934h3.182v-10.694c0-12.101 9.844-21.945 21.945-21.945h4.474z" fill="#fe9901"/></g><g><path d="m103.409 212.666v-42.17h-3.181c-13.726 0-24.853 11.127-24.853 24.853v2.822c0 13.726 11.127 24.853 24.853 24.853h4.29c-.721-3.342-1.109-6.805-1.109-10.358z" fill="#f6a96c"/><path d="m222.197 170.496h-3.182v42.17c0 3.553-.388 7.016-1.108 10.357h4.29c13.726 0 24.853-11.127 24.853-24.853v-2.822c0-13.725-11.127-24.852-24.853-24.852z" fill="#ffbd86"/></g><g><path d="m169.887 262.794h-17.35c-27.685 0-50.128-22.443-50.128-50.128v-51.864c0-12.672 10.273-22.945 22.945-22.945h71.717c12.672 0 22.945 10.273 22.945 22.945v51.864c0 27.685-22.444 50.128-50.129 50.128z" fill="#fed2a4"/></g><path d="m125.402 212.666v-51.864c0-12.672 10.273-22.945 22.945-22.945h-22.992c-12.672 0-22.945 10.273-22.945 22.945v51.864c0 27.685 22.443 50.128 50.128 50.128h17.35c.913 0 1.817-.039 2.717-.092-26.323-1.515-47.203-23.334-47.203-50.036z" fill="#ffbd86"/><g><g><g><path d="m128.24 193.459c-4.142 0-7.5-3.358-7.5-7.5v-9.249c0-4.142 3.358-7.5 7.5-7.5s7.5 3.358 7.5 7.5v9.249c0 4.143-3.358 7.5-7.5 7.5z" fill="#d88a55"/></g><g><path d="m194.186 193.459c-4.142 0-7.5-3.358-7.5-7.5v-9.249c0-4.142 3.358-7.5 7.5-7.5s7.5 3.358 7.5 7.5v9.249c0 4.143-3.358 7.5-7.5 7.5z" fill="#d88a55"/></g></g><g><path d="m161.209 212.362c-1.706 0-3.42-.579-4.827-1.763l-8.648-7.283c-2.698-2.272-3.448-6.118-1.802-9.238l8.648-16.386c1.934-3.663 6.471-5.065 10.134-3.132 3.663 1.934 5.065 6.47 3.132 10.134l-5.828 11.041 4.026 3.39c3.168 2.668 3.574 7.399.906 10.568-1.484 1.762-3.605 2.669-5.741 2.669z" fill="#d88a55"/></g></g><g><path d="m161.212 243.289c-11 0-21.348-4.289-29.136-12.077-2.929-2.929-2.929-7.678 0-10.606 2.929-2.929 7.678-2.929 10.606 0 4.955 4.955 11.535 7.683 18.529 7.683s13.575-2.729 18.529-7.683c2.929-2.929 7.678-2.93 10.606 0 2.929 2.929 2.929 7.677 0 10.606-7.785 7.788-18.133 12.077-29.134 12.077z" fill="#d88a55"/></g><g><circle cx="161.213" cy="321.455" fill="#fff" r="7.664"/></g><g><circle cx="161.213" cy="344.958" fill="#fff" r="7.664"/></g></g><g><path d="m272.136 304.6c-3.666-2.116-8.353-.86-10.469 2.805l-24.474 42.391h2.75c4.742 0 8.942 2.326 11.551 5.886l23.448-40.613c2.116-3.665.86-8.353-2.806-10.469z" fill="#596c76"/></g><path d="m266.474 313.723c1.924-3.332 5.97-4.664 9.444-3.291-.251-2.353-1.576-4.559-3.782-5.832-3.666-2.116-8.353-.86-10.469 2.805l-24.474 42.391h2.75c1.816 0 3.549.346 5.147.967z" fill="#465a61"/><g><path d="m255.271 379.169v-15.045c0-8.465-6.863-15.328-15.328-15.328h-10.219c-8.466 0-15.328 6.863-15.328 15.328v15.045z" fill="#fed2a4"/></g><path d="m243.198 349.15c-1.05-.227-2.137-.354-3.255-.354h-10.219c-8.466 0-15.328 6.863-15.328 15.328v15.045h16.729v-15.045c0-7.347 5.172-13.48 12.073-14.974z" fill="#ffbd86"/><path d="m156.236 402c1.241-2.214 1.956-4.763 1.956-7.481v-24.525c0-8.465-6.863-15.328-15.328-15.328h-10.219c-6.671 0-12.331 4.269-14.437 10.219h-61.692c-12.084 0-21.97 9.887-21.97 21.97 0 5.858 2.328 11.196 6.1 15.145z" fill="#fed2a4"/><g><path d="m90.323 364.884h-33.807c-12.084 0-21.97 9.887-21.97 21.97 0 5.858 2.328 11.196 6.1 15.145h33.808c-3.771-3.949-6.1-9.287-6.1-15.145-.001-12.083 9.886-21.97 21.969-21.97z" fill="#ffbd86"/></g><path d="m275.708 402v-13.613c0-5.644-4.575-10.219-10.219-10.219h-81.925c-10.976 0-20.142 7.737-22.352 18.054-2.209-10.317-11.375-18.054-22.352-18.054h-81.833c-5.644 0-10.219 4.575-10.219 10.219v13.613z" fill="#fff"/><g><path d="m82.219 378.169h-25.192c-5.644 0-10.219 4.575-10.219 10.219v13.612h25.192v-13.613c0-5.643 4.575-10.218 10.219-10.218z" fill="#eaf6ff"/></g></g><g><g><path d="m306 338v-42.5c0-4.142-3.358-7.5-7.5-7.5s-7.5 3.358-7.5 7.5v42.5z" fill="#596c76"/><path d="m328 338v-42.5c0-4.142-3.358-7.5-7.5-7.5s-7.5 3.358-7.5 7.5v42.5z" fill="#596c76"/><path d="m318 338v-32.5c0-4.142-3.358-7.5-7.5-7.5s-7.5 3.358-7.5 7.5v32.5z" fill="#7a8c98"/></g><path d="m335.5 402v-62c0-1.657-1.343-3-3-3h-46c-1.657 0-3 1.343-3 3v62z" fill="#fea613"/><path d="m306 337h-19.5c-1.657 0-3 1.343-3 3v62h19.5v-62c0-1.657 1.343-3 3-3z" fill="#fe9901"/></g><g><path d="m465.5 432h-441c-3.866 0-7-3.134-7-7v-17c0-3.866 3.134-7 7-7h441c3.866 0 7 3.134 7 7v17c0 3.866-3.134 7-7 7z" fill="#ea9b58"/></g><g><path d="m64 416c-3.866 0-7-3.134-7-7v-8h-32.5c-3.866 0-7 3.134-7 7v17c0 3.866 3.134 7 7 7h441c3.866 0 7-3.134 7-7v-9z" fill="#d88a55"/></g></g><g><g><path d="m288 95.5h-38c-4.142 0-7.5-3.358-7.5-7.5s3.358-7.5 7.5-7.5h38c4.142 0 7.5 3.358 7.5 7.5s-3.358 7.5-7.5 7.5z" fill="#8ac9fe"/></g><g><path d="m288 119.5h-38c-4.142 0-7.5-3.358-7.5-7.5s3.358-7.5 7.5-7.5h38c4.142 0 7.5 3.358 7.5 7.5s-3.358 7.5-7.5 7.5z" fill="#8ac9fe"/></g><g><path d="m272.304 143.5h-22.304c-4.142 0-7.5-3.358-7.5-7.5s3.358-7.5 7.5-7.5h22.304c4.142 0 7.5 3.358 7.5 7.5s-3.358 7.5-7.5 7.5z" fill="#8ac9fe"/></g></g><g><path d="m458.757 109h-9.818c-5.062 0-9.165 4.103-9.165 9.165v12.097l-3.018-3.018c-2.195-2.195-5.754-2.195-7.95 0-2.195 2.195-2.195 5.754 0 7.95l6.574 6.574c2.813 2.813 6.628 4.393 10.607 4.393h11.935c5.523 0 10-4.477 10-10v-17.996c0-5.062-4.103-9.165-9.165-9.165z" fill="#fed2a4"/></g></g></svg>